<?xml version="1.0" encoding="UTF-8" standalone="no"?>
<!-- Created with Inkscape (http://www.inkscape.org/) -->

<svg
   xmlns:dc="http://purl.org/dc/elements/1.1/"
   xmlns:cc="http://creativecommons.org/ns#"
   xmlns:rdf="http://www.w3.org/1999/02/22-rdf-syntax-ns#"
   xmlns:svg="http://www.w3.org/2000/svg"
   xmlns="http://www.w3.org/2000/svg"
   xmlns:sodipodi="http://sodipodi.sourceforge.net/DTD/sodipodi-0.dtd"
   xmlns:inkscape="http://www.inkscape.org/namespaces/inkscape"
   width="108.825"
   height="108.525"
   id="svg2882"
   sodipodi:version="0.32"
   inkscape:version="0.48.5 r10040"
   version="1.0"
   sodipodi:docname="transportsign_radioactive_i.svg"
   inkscape:output_extension="org.inkscape.output.svg.inkscape">
  <defs
     id="defs2884">
    <inkscape:perspective
       sodipodi:type="inkscape:persp3d"
       inkscape:vp_x="0 : 526.18109 : 1"
       inkscape:vp_y="0 : 1000 : 0"
       inkscape:vp_z="744.09448 : 526.18109 : 1"
       inkscape:persp3d-origin="372.04724 : 350.78739 : 1"
       id="perspective2890" />
  </defs>
  <sodipodi:namedview
     id="base"
     pagecolor="#ffffff"
     bordercolor="#666666"
     borderopacity="1.0"
     inkscape:pageopacity="0.0"
     inkscape:pageshadow="2"
     inkscape:zoom="7.6480074"
     inkscape:cx="54.4125"
     inkscape:cy="53.001566"
     inkscape:document-units="px"
     inkscape:current-layer="layer1"
     showgrid="false"
     inkscape:window-width="1713"
     inkscape:window-height="1009"
     inkscape:window-x="205"
     inkscape:window-y="48"
     inkscape:window-maximized="1" />
  <metadata
     id="metadata2887">
    <rdf:RDF>
      <cc:Work
         rdf:about="">
        <dc:format>image/svg+xml</dc:format>
        <dc:type
           rdf:resource="http://purl.org/dc/dcmitype/StillImage" />
      </cc:Work>
    </rdf:RDF>
  </metadata>
  <g
     inkscape:label="Calque 1"
     inkscape:groupmode="layer"
     id="layer1"
     transform="translate(-391.30179,76.186032)">
    <path
       sodipodi:type="star"
       style="fill:#ffffff"
       id="path3020"
       sodipodi:sides="4"
       sodipodi:cx="54.524006"
       sodipodi:cy="101.20283"
       sodipodi:r1="93.880753"
       sodipodi:r2="66.38372"
       sodipodi:arg1="-1.5694036"
       sodipodi:arg2="-0.78400541"
       inkscape:flatsided="true"
       inkscape:rounded="0"
       inkscape:randomized="0"
       d="M 54.654756,7.3221659 148.40467,101.33358 54.393256,195.08349 -39.356656,101.07208 z"
       transform="matrix(0.57660166,0,0,0.57938718,413.86415,-80.559157)" />
    <g
       id="g21"
       transform="matrix(1.25,0,0,-1.25,395.50179,-19.261032)">
      <path
         d="M 0,0 L -0.48,-0.48 L -3.12,1.92 L -2.64,2.4 L 0,0 z M 4.02,-4.08 L 3.54,-4.56 L 0.9,-2.16 L 1.38,-1.68 L 4.02,-4.08 z M 8.1,-8.16 L 7.62,-8.64 L 4.98,-6.24 L 5.46,-5.76 L 8.1,-8.16 z M 12.18,-12.24 L 11.7,-12.72 L 9.06,-10.32 L 9.54,-9.84 L 12.18,-12.24 z M 16.26,-16.32 L 15.78,-16.8 L 13.14,-14.4 L 13.62,-13.68 L 16.26,-16.32 z M 20.34,-20.4 L 19.86,-20.88 L 17.22,-18.48 L 17.7,-17.76 L 20.34,-20.4 z M 24.42,-24.48 L 23.94,-24.96 L 21.3,-22.32 L 21.78,-21.84 L 24.42,-24.48 z M 28.5,-28.56 L 28.02,-29.04 L 25.38,-26.4 L 25.86,-25.92 L 28.5,-28.56 z M 32.58,-32.64 L 32.1,-33.12 L 29.46,-30.48 L 29.94,-30 L 32.58,-32.64 z M 36.66,-36.72 L 36.18,-37.2 L 33.54,-34.56 L 34.26,-34.08 L 36.66,-36.72 z M 40.5,-41.04 L 40.02,-41.04 L 37.62,-38.64 L 38.34,-38.16 L 40.5,-40.32 L 40.5,-41.04 z M 40.5,-41.04 L 40.26,-41.28 L 40.02,-41.04 L 40.5,-41.04 z M 40.26,-40.08 L 40.74,-40.56 L 40.5,-41.04 L 40.02,-40.32 L 40.26,-40.08 z M 44.34,-36 L 44.82,-36.48 L 42.42,-39.12 L 41.7,-38.64 L 44.34,-36 z M 48.42,-31.92 L 48.9,-32.4 L 46.5,-35.04 L 45.78,-34.56 L 48.42,-31.92 z M 52.5,-27.84 L 52.98,-28.32 L 50.58,-30.96 L 49.86,-30.48 L 52.5,-27.84 z M 56.58,-23.76 L 57.06,-24.24 L 54.42,-26.88 L 53.94,-26.4 L 56.58,-23.76 z M 60.66,-19.68 L 61.14,-20.16 L 58.5,-22.8 L 58.02,-22.32 L 60.66,-19.68 z M 64.74,-15.6 L 65.22,-16.08 L 62.58,-18.72 L 62.1,-18.24 L 64.74,-15.6 z M 68.82,-11.52 L 69.3,-12 L 66.66,-14.64 L 66.18,-14.16 L 68.82,-11.52 z M 72.9,-7.44 L 73.38,-7.92 L 70.74,-10.56 L 70.26,-10.08 L 72.9,-7.44 z M 76.98,-3.36 L 77.46,-4.08 L 74.82,-6.48 L 74.34,-6 L 76.98,-3.36 z M 81.06,0.72 L 81.54,0 L 78.9,-2.4 L 78.42,-1.92 L 81.06,0.72 z M 83.46,2.4 L 83.46,1.92 L 82.98,1.68 L 82.5,2.16 L 82.98,2.4 L 83.46,2.4 z M 83.46,2.4 L 83.7,2.16 L 83.46,1.92 L 83.46,2.4 z M 80.58,4.08 L 81.06,4.8 L 83.46,2.4 L 82.98,1.92 L 80.58,4.08 z M 76.5,8.16 L 76.98,8.88 L 79.62,6.24 L 79.14,5.76 L 76.5,8.16 z M 72.42,12.18 L 72.9,12.9 L 75.54,10.26 L 75.06,9.84 L 72.42,12.18 z M 68.34,16.26 L 68.82,16.98 L 71.46,14.34 L 70.98,13.86 L 68.34,16.26 z M 64.26,20.34 L 64.74,20.82 L 67.38,18.42 L 66.9,17.94 L 64.26,20.34 z M 60.18,24.42 L 60.66,24.9 L 63.3,22.5 L 62.82,22.02 L 60.18,24.42 z M 56.1,28.5 L 56.58,28.98 L 59.22,26.58 L 58.74,26.1 L 56.1,28.5 z M 52.02,32.58 L 52.5,33.06 L 55.14,30.66 L 54.66,30.18 L 52.02,32.58 z M 47.94,36.66 L 48.66,37.14 L 51.06,34.74 L 50.58,34.26 L 47.94,36.66 z M 43.86,40.74 L 44.58,41.22 L 46.98,38.82 L 46.5,38.34 L 43.86,40.74 z M 40.02,45.3 L 40.5,45.3 L 42.9,42.9 L 42.42,42.42 L 40.02,44.82 L 40.02,45.3 z M 40.02,45.3 L 40.26,45.54 L 40.5,45.3 L 40.02,45.3 z M 40.5,44.58 L 39.78,45.3 L 40.02,45.3 L 40.5,44.82 L 40.5,44.58 z M 36.42,40.5 L 35.7,41.22 L 38.34,43.62 L 38.82,43.14 L 36.42,40.5 z M 32.1,36.66 L 31.62,37.14 L 34.26,39.54 L 34.74,39.06 L 32.1,36.66 z M 28.02,32.58 L 27.54,33.06 L 30.18,35.46 L 30.66,34.98 L 28.02,32.58 z M 23.94,28.5 L 23.46,28.98 L 26.1,31.38 L 26.58,30.9 L 23.94,28.5 z M 19.86,24.42 L 19.38,24.9 L 22.02,27.3 L 22.5,26.82 L 19.86,24.42 z M 15.78,20.34 L 15.3,20.82 L 17.94,23.46 L 18.42,22.74 L 15.78,20.34 z M 11.7,16.26 L 11.22,16.74 L 13.86,19.38 L 14.34,18.66 L 11.7,16.26 z M 7.62,12.18 L 7.14,12.66 L 9.78,15.3 L 10.26,14.82 L 7.62,12.18 z M 3.54,8.16 L 3.06,8.64 L 5.7,11.22 L 6.18,10.74 L 3.54,8.16 z M -0.48,4.08 L -0.96,4.56 L 1.62,7.2 L 2.1,6.72 L -0.48,4.08 z M -3.12,1.92 L -3.12,2.4 L -2.4,3.12 L -1.92,2.64 L -2.64,1.92 L -3.12,1.92 z M -3.12,1.92 L -3.36,2.16 L -3.12,2.4 L -3.12,1.92"
         style="fill:#1f1a17;fill-opacity:1;fill-rule:nonzero;stroke:none"
         id="path23" />
    </g>
    <g
       id="g283"
       transform="matrix(1.25,0,0,-1.25,443.42679,10.738968)">
      <path
         d="M 0,0 L 5.04,0 L 5.04,-1.2 L 4.08,-2.4 L 3.36,-3.84 L 2.88,-5.28 L 2.64,-6.96 L 1.2,-6.96 L 1.44,-5.52 L 1.92,-4.08 L 2.64,-2.64 L 3.6,-1.2 L 0,-1.2 L 0,0"
         style="fill:#1f1a17;fill-opacity:1;fill-rule:evenodd;stroke:none"
         id="path285" />
    </g>
    <g
       id="g287"
       transform="matrix(1.25,0,0,-1.25,443.42679,10.738968)">
      <path
         d="M 0,0 L 5.04,0 L 5.04,-1.2 L 4.08,-2.4 L 3.36,-3.84 L 2.88,-5.28 L 2.64,-6.96 L 1.2,-6.96 L 1.44,-5.52 L 1.92,-4.08 L 2.64,-2.64 L 3.6,-1.2 L 0,-1.2 L 0,0"
         style="fill:none;stroke:#1f1a17;stroke-width:0.23999999;stroke-linecap:round;stroke-linejoin:round;stroke-miterlimit:10;stroke-dasharray:none;stroke-opacity:1"
         id="path289" />
    </g>
    <g
       id="g299"
       transform="matrix(1.25,0,0,-1.25,399.02679,-21.961032)">
      <path
         d="M 0,0 L 37.44,-37.2 L 74.64,0 L 37.44,37.14 L 0,0 z"
         style="fill:none;stroke:#1f1a17;stroke-width:0.71899998;stroke-linecap:round;stroke-linejoin:round;stroke-miterlimit:10;stroke-dasharray:none;stroke-opacity:1"
         id="path301" />
    </g>
    <g
       id="g303"
       transform="matrix(1.25,0,0,-1.25,395.50179,-19.261032)">
      <path
         d="M 0,0 L -0.48,-0.48 L -3.12,1.92 L -2.64,2.4 L 0,0 z M 4.02,-4.08 L 3.54,-4.56 L 0.9,-2.16 L 1.38,-1.68 L 4.02,-4.08 z M 8.1,-8.16 L 7.62,-8.64 L 4.98,-6.24 L 5.46,-5.76 L 8.1,-8.16 z M 12.18,-12.24 L 11.7,-12.72 L 9.06,-10.32 L 9.54,-9.84 L 12.18,-12.24 z M 16.26,-16.32 L 15.78,-16.8 L 13.14,-14.4 L 13.62,-13.68 L 16.26,-16.32 z M 20.34,-20.4 L 19.86,-20.88 L 17.22,-18.48 L 17.7,-17.76 L 20.34,-20.4 z M 24.42,-24.48 L 23.94,-24.96 L 21.3,-22.32 L 21.78,-21.84 L 24.42,-24.48 z M 28.5,-28.56 L 28.02,-29.04 L 25.38,-26.4 L 25.86,-25.92 L 28.5,-28.56 z M 32.58,-32.64 L 32.1,-33.12 L 29.46,-30.48 L 29.94,-30 L 32.58,-32.64 z M 36.66,-36.72 L 36.18,-37.2 L 33.54,-34.56 L 34.26,-34.08 L 36.66,-36.72 z M 40.5,-41.04 L 40.02,-41.04 L 37.62,-38.64 L 38.34,-38.16 L 40.5,-40.32 L 40.5,-41.04 z M 40.5,-41.04 L 40.26,-41.28 L 40.02,-41.04 L 40.5,-41.04 z M 40.26,-40.08 L 40.74,-40.56 L 40.5,-41.04 L 40.02,-40.32 L 40.26,-40.08 z M 44.34,-36 L 44.82,-36.48 L 42.42,-39.12 L 41.7,-38.64 L 44.34,-36 z M 48.42,-31.92 L 48.9,-32.4 L 46.5,-35.04 L 45.78,-34.56 L 48.42,-31.92 z M 52.5,-27.84 L 52.98,-28.32 L 50.58,-30.96 L 49.86,-30.48 L 52.5,-27.84 z M 56.58,-23.76 L 57.06,-24.24 L 54.42,-26.88 L 53.94,-26.4 L 56.58,-23.76 z M 60.66,-19.68 L 61.14,-20.16 L 58.5,-22.8 L 58.02,-22.32 L 60.66,-19.68 z M 64.74,-15.6 L 65.22,-16.08 L 62.58,-18.72 L 62.1,-18.24 L 64.74,-15.6 z M 68.82,-11.52 L 69.3,-12 L 66.66,-14.64 L 66.18,-14.16 L 68.82,-11.52 z M 72.9,-7.44 L 73.38,-7.92 L 70.74,-10.56 L 70.26,-10.08 L 72.9,-7.44 z M 76.98,-3.36 L 77.46,-4.08 L 74.82,-6.48 L 74.34,-6 L 76.98,-3.36 z M 81.06,0.72 L 81.54,0 L 78.9,-2.4 L 78.42,-1.92 L 81.06,0.72 z M 83.46,2.4 L 83.46,1.92 L 82.98,1.68 L 82.5,2.16 L 82.98,2.4 L 83.46,2.4 z M 83.46,2.4 L 83.7,2.16 L 83.46,1.92 L 83.46,2.4 z M 80.58,4.08 L 81.06,4.8 L 83.46,2.4 L 82.98,1.92 L 80.58,4.08 z M 76.5,8.16 L 76.98,8.88 L 79.62,6.24 L 79.14,5.76 L 76.5,8.16 z M 72.42,12.18 L 72.9,12.9 L 75.54,10.26 L 75.06,9.84 L 72.42,12.18 z M 68.34,16.26 L 68.82,16.98 L 71.46,14.34 L 70.98,13.86 L 68.34,16.26 z M 64.26,20.34 L 64.74,20.82 L 67.38,18.42 L 66.9,17.94 L 64.26,20.34 z M 60.18,24.42 L 60.66,24.9 L 63.3,22.5 L 62.82,22.02 L 60.18,24.42 z M 56.1,28.5 L 56.58,28.98 L 59.22,26.58 L 58.74,26.1 L 56.1,28.5 z M 52.02,32.58 L 52.5,33.06 L 55.14,30.66 L 54.66,30.18 L 52.02,32.58 z M 47.94,36.66 L 48.66,37.14 L 51.06,34.74 L 50.58,34.26 L 47.94,36.66 z M 43.86,40.74 L 44.58,41.22 L 46.98,38.82 L 46.5,38.34 L 43.86,40.74 z M 40.02,45.3 L 40.5,45.3 L 42.9,42.9 L 42.42,42.42 L 40.02,44.82 L 40.02,45.3 z M 40.02,45.3 L 40.26,45.54 L 40.5,45.3 L 40.02,45.3 z M 40.5,44.58 L 39.78,45.3 L 40.02,45.3 L 40.5,44.82 L 40.5,44.58 z M 36.42,40.5 L 35.7,41.22 L 38.34,43.62 L 38.82,43.14 L 36.42,40.5 z M 32.1,36.66 L 31.62,37.14 L 34.26,39.54 L 34.74,39.06 L 32.1,36.66 z M 28.02,32.58 L 27.54,33.06 L 30.18,35.46 L 30.66,34.98 L 28.02,32.58 z M 23.94,28.5 L 23.46,28.98 L 26.1,31.38 L 26.58,30.9 L 23.94,28.5 z M 19.86,24.42 L 19.38,24.9 L 22.02,27.3 L 22.5,26.82 L 19.86,24.42 z M 15.78,20.34 L 15.3,20.82 L 17.94,23.46 L 18.42,22.74 L 15.78,20.34 z M 11.7,16.26 L 11.22,16.74 L 13.86,19.38 L 14.34,18.66 L 11.7,16.26 z M 7.62,12.18 L 7.14,12.66 L 9.78,15.3 L 10.26,14.82 L 7.62,12.18 z M 3.54,8.16 L 3.06,8.64 L 5.7,11.22 L 6.18,10.74 L 3.54,8.16 z M -0.48,4.08 L -0.96,4.56 L 1.62,7.2 L 2.1,6.72 L -0.48,4.08 z M -3.12,1.92 L -3.12,2.4 L -2.4,3.12 L -1.92,2.64 L -2.64,1.92 L -3.12,1.92 z M -3.12,1.92 L -3.36,2.16 L -3.12,2.4 L -3.12,1.92"
         style="fill:#1f1a17;fill-opacity:1;fill-rule:nonzero;stroke:none"
         id="path305" />
    </g>
    <path
       d="M 473.12679,-12.361032 L 475.22679,-12.361032 L 475.22679,-19.861032 L 473.12679,-19.861032 L 473.12679,-12.361032 z"
       style="fill:#da251d;fill-opacity:1;fill-rule:nonzero;stroke:none"
       id="path315" />
    <g
       id="g321"
       transform="matrix(1.25,0,0,-1.25,414.02679,-12.661032)">
      <path
         d="M 0,0 L 0,5.76 L 1.92,5.76 L 2.64,5.52 L 3.12,5.52 L 3.6,5.04 L 3.84,4.56 L 3.84,3.36 L 3.6,2.88 L 2.64,2.4 C 4.217,0.987 2.866,1.55 4.32,0 L 3.12,0 L 2.4,1.2 L 2.16,1.68 L 1.44,2.4 L 0.96,2.4 L 0.96,0 L 0,0 z M 0.96,3.36 L 2.64,3.36 L 2.64,3.6 L 2.88,3.84 L 2.88,4.32 L 2.64,4.32 L 2.64,4.56 L 2.4,4.56 L 2.16,4.8 L 0.96,4.8 L 0.96,3.36 z M 8.88,0 L 7.92,0 L 7.44,1.2 L 5.76,1.2 L 5.28,0 L 4.32,0 L 6,5.76 L 7.2,5.76 L 8.88,0 z M 7.2,2.16 L 6.48,4.32 L 6,2.16 L 7.2,2.16 z M 9.36,5.76 L 11.28,5.76 L 11.76,5.52 L 12.24,5.52 L 12.72,5.04 L 13.44,3.6 L 13.44,2.16 L 13.2,1.44 L 12.72,0.48 L 12.24,0 L 9.36,0 L 9.36,5.76 z M 10.32,4.8 L 10.32,0.96 L 11.76,0.96 L 12,1.2 L 12.24,1.2 L 12.24,1.68 L 12.48,2.16 L 12.48,3.36 L 12.24,3.84 L 12.24,4.08 L 11.76,4.56 L 11.52,4.56 L 11.28,4.8 L 10.32,4.8 z M 15.12,0 L 14.16,0 L 14.16,5.76 L 15.12,5.76 L 15.12,0 z M 15.84,2.88 C 15.449,5.764 19.12,7.065 20.16,4.08 C 21.634,-0.418 16.07,-2.276 15.84,2.88 z M 16.8,2.88 L 16.8,1.92 L 17.28,1.44 L 17.52,0.96 L 18.24,0.72 L 18.72,0.96 L 18.96,1.2 L 19.44,1.92 L 19.44,2.88 C 19.567,5.433 16.621,5.278 16.8,2.88 z M 25.44,0 L 24.24,0 L 24,1.2 L 22.08,1.2 L 21.6,0 L 20.64,0 L 22.56,5.76 L 23.52,5.76 L 25.44,0 z M 23.52,2.16 L 23.04,4.32 L 22.32,2.16 L 23.52,2.16 z M 28.8,2.16 L 29.76,1.68 L 29.52,0.96 L 29.04,0.24 L 28.56,0 L 27.84,-0.24 L 27.12,0 L 26.4,0.48 L 25.92,1.44 L 25.68,2.64 L 25.92,4.08 L 26.4,5.04 L 27.12,5.52 L 27.84,5.76 L 29.28,5.28 L 29.52,4.8 L 29.76,4.08 L 28.8,3.84 L 28.8,4.32 L 28.32,4.8 L 27.84,4.8 L 27.36,4.56 L 27.12,4.32 L 26.64,2.88 L 26.88,1.92 L 27.12,1.2 L 27.36,0.96 L 27.84,0.72 L 28.08,0.96 L 28.56,1.2 L 28.8,1.44 L 28.8,2.16 z M 31.68,0 L 31.68,4.8 L 30.24,4.8 L 30.24,5.76 L 34.08,5.76 L 34.08,4.8 L 32.64,4.8 L 32.64,0 L 31.68,0 z M 35.52,0 L 34.56,0 L 34.56,5.76 L 35.52,5.76 L 35.52,0 z M 37.68,0 L 36,5.76 L 36.96,5.76 L 38.16,1.44 L 39.36,5.76 L 40.32,5.76 L 38.64,0 L 37.68,0 z M 40.8,0 L 40.8,5.76 L 44.4,5.76 L 44.4,4.8 L 41.76,4.8 L 41.76,3.36 L 44.16,3.36 L 44.16,2.4 L 41.76,2.4 L 41.76,0.96 L 44.4,0.96 L 44.4,0 L 40.8,0"
         style="fill:#1f1a17;fill-opacity:1;fill-rule:evenodd;stroke:none"
         id="path323" />
    </g>
    <g
       id="g329"
       transform="matrix(1.25,0,0,-1.25,421.22679,-8.7610317)">
      <path
         d="M 0,0 L 0.72,-0.24 L 0.24,-0.72 L -0.24,-0.96 L -1.2,-0.96 C -2.4,0.495 -1.832,0.516 -1.2,1.92 C 0.051,1.923 0.122,2.141 0.72,0.96 L 0,0.96 L 0,1.2 L -0.24,1.2 L -0.24,1.44 L -0.96,1.44 L -1.2,1.2 L -1.2,-0.24 L -0.96,-0.48 L -0.24,-0.48 L 0,-0.24 L 0,0 z M 0.96,0.48 L 0.96,0.72 L 1.2,1.2 L 1.2,1.44 L 1.44,1.44 L 1.68,1.68 L 2.16,1.92 L 2.88,1.92 L 3.36,1.44 L 3.84,0.48 L 3.6,-0.24 L 3.36,-0.72 L 2.88,-0.96 L 1.92,-0.96 L 1.44,-0.72 L 1.2,-0.24 L 0.96,0.48 z M 1.68,0.48 L 1.68,0 L 2.16,-0.48 L 2.64,-0.48 L 3.12,0 L 3.12,0.96 L 2.64,1.44 L 2.16,1.44 L 1.68,0.96 L 1.68,0.48 z M 4.32,-0.96 L 4.32,1.92 L 4.8,1.92 L 6,0 L 6,1.92 L 6.48,1.92 L 6.48,-0.96 L 6,-0.96 L 4.8,0.96 L 4.8,-0.96 L 4.32,-0.96 z M 7.68,-0.96 L 7.68,1.44 L 6.96,1.44 L 6.96,1.92 L 9.12,1.92 L 9.12,1.44 L 8.4,1.44 L 8.4,-0.96 L 7.68,-0.96 z M 9.6,-0.96 L 9.6,1.92 L 11.76,1.92 L 11.76,1.44 L 10.08,1.44 L 10.08,0.72 L 11.52,0.72 L 11.52,0.24 L 10.08,0.24 L 10.08,-0.48 L 11.76,-0.48 L 11.76,-0.96 L 9.6,-0.96 z M 12.24,-0.96 L 12.24,1.92 L 12.72,1.92 L 13.92,0 L 13.92,1.92 L 14.4,1.92 L 14.4,-0.96 L 13.92,-0.96 L 12.72,0.96 L 12.72,-0.96 L 12.24,-0.96 z M 15.84,-0.96 L 15.84,1.44 L 14.88,1.44 L 14.88,1.92 L 17.28,1.92 L 17.28,1.44 L 16.32,1.44 L 16.32,-0.96 L 15.84,-0.96 z M 17.52,0 L 18,0 L 18,-0.24 L 18.24,-0.48 L 18.96,-0.48 L 19.2,-0.24 L 19.2,0 L 18.96,0 L 18.96,0.24 L 18.48,0.24 L 18,0.48 L 17.76,0.48 L 17.52,0.72 L 17.52,1.44 L 17.76,1.44 L 17.76,1.68 L 18,1.92 L 18.96,1.92 L 19.44,1.68 L 19.68,1.44 L 19.68,0.96 L 19.2,0.96 L 18.96,1.2 L 18.96,1.44 L 18.24,1.44 L 18,1.2 L 18,0.96 L 18.24,0.96 L 18.72,0.72 L 18.96,0.72 L 19.2,0.48 L 19.44,0.48 L 19.68,0.24 L 19.68,-0.72 L 19.44,-0.72 L 19.2,-0.96 L 18,-0.96 L 17.52,-0.48 L 17.52,0 z M 21.84,-0.96 L 21.36,-0.96 L 21.36,-0.48 L 21.84,-0.48 L 21.84,-0.96 z M 23.04,-0.96 L 22.56,-0.96 L 22.56,-0.48 L 23.04,-0.48 L 23.04,-0.96 z M 24,-0.96 L 23.52,-0.96 L 23.52,-0.48 L 24,-0.48 L 24,-0.96 z M 25.2,-0.96 L 24.72,-0.96 L 24.72,-0.48 L 25.2,-0.48 L 25.2,-0.96 z M 26.4,-0.96 L 25.68,-0.96 L 25.68,-0.48 L 26.4,-0.48 L 26.4,-0.96 z M 27.36,-0.96 L 26.88,-0.96 L 26.88,-0.48 L 27.36,-0.48 L 27.36,-0.96 z M 28.56,-0.96 L 28.08,-0.96 L 28.08,-0.48 L 28.56,-0.48 L 28.56,-0.96 z M 29.76,-0.96 L 29.04,-0.96 L 29.04,-0.48 L 29.76,-0.48 L 29.76,-0.96 z M 30.72,-0.96 L 30.24,-0.96 L 30.24,-0.48 L 30.72,-0.48 L 30.72,-0.96 z M 31.92,-0.96 L 31.44,-0.96 L 31.44,-0.48 L 31.92,-0.48 L 31.92,-0.96 z M 33.12,-0.96 L 32.4,-0.96 L 32.4,-0.48 L 33.12,-0.48 L 33.12,-0.96 z M 34.08,-0.96 L 33.6,-0.96 L 33.6,-0.48 L 34.08,-0.48 L 34.08,-0.96 z M 35.28,-0.96 L 34.8,-0.96 L 34.8,-0.48 L 35.28,-0.48 L 35.28,-0.96 z M 36.24,-0.96 L 35.76,-0.96 L 35.76,-0.48 L 36.24,-0.48 L 36.24,-0.96 z M 37.44,-0.96 L 36.96,-0.96 L 36.96,-0.48 L 37.44,-0.48 L 37.44,-0.96 z M 38.64,-0.96 L 37.92,-0.96 L 37.92,-0.48 L 38.64,-0.48 L 38.64,-0.96 z M 39.6,-0.96 L 39.12,-0.96 L 39.12,-0.48 L 39.6,-0.48 L 39.6,-0.96 z M 40.8,-0.96 L 40.32,-0.96 L 40.32,-0.48 L 40.8,-0.48 L 40.8,-0.96 z M 42,-0.96 L 41.28,-0.96 L 41.28,-0.48 L 42,-0.48 L 42,-0.96 z M 42.96,-0.96 L 42.48,-0.96 L 42.48,-0.48 L 42.96,-0.48 L 42.96,-0.96 z M 6.72,-5.52 L 6,-5.52 L 5.76,-4.8 L 4.56,-4.8 L 4.32,-5.52 L 3.84,-5.52 L 4.8,-2.64 L 5.52,-2.64 L 6.72,-5.52 z M 5.52,-4.32 L 5.28,-3.36 L 4.8,-4.32 L 5.52,-4.32 z M 8.88,-4.32 L 9.36,-4.56 L 9.12,-5.04 L 8.64,-5.52 L 7.68,-5.52 L 7.2,-5.04 L 6.72,-4.08 L 6.96,-3.36 L 7.2,-2.88 L 7.68,-2.64 L 8.64,-2.64 L 9.12,-2.88 L 9.12,-3.12 L 9.36,-3.36 L 8.64,-3.6 L 8.64,-3.12 C 6.186,-2.808 7.93,-6.678 8.88,-4.32 z M 10.56,-5.52 L 10.56,-3.12 L 9.6,-3.12 L 9.6,-2.64 L 12,-2.64 L 12,-3.12 L 11.04,-3.12 L 11.04,-5.52 L 10.56,-5.52 z M 12.72,-5.52 L 12.24,-5.52 L 12.24,-2.64 L 12.72,-2.64 L 12.72,-5.52 z M 14.16,-5.52 L 13.2,-2.64 L 13.68,-2.64 L 14.4,-4.8 L 15.12,-2.64 L 15.84,-2.64 L 14.64,-5.52 L 14.16,-5.52 z M 16.56,-5.52 L 16.08,-5.52 L 16.08,-2.64 L 16.56,-2.64 L 16.56,-5.52 z M 17.76,-5.52 L 17.76,-3.12 L 17.04,-3.12 L 17.04,-2.64 L 19.2,-2.64 L 19.2,-3.12 L 18.48,-3.12 L 18.48,-5.52 L 17.76,-5.52 z M 20.4,-5.52 L 20.4,-4.32 L 19.2,-2.64 L 19.92,-2.64 L 20.64,-3.84 L 21.36,-2.64 L 22.08,-2.64 L 20.88,-4.32 L 20.88,-5.52 L 20.4,-5.52 z M 23.76,-5.52 L 23.28,-5.52 L 23.28,-5.04 L 23.76,-5.04 L 23.76,-5.52 z M 24.96,-5.52 L 24.48,-5.52 L 24.48,-5.04 L 24.96,-5.04 L 24.96,-5.52 z M 26.16,-5.52 L 25.44,-5.52 L 25.44,-5.04 L 26.16,-5.04 L 26.16,-5.52 z M 27.12,-5.52 L 26.64,-5.52 L 26.64,-5.04 L 27.12,-5.04 L 27.12,-5.52 z M 28.32,-5.52 L 27.84,-5.52 L 27.84,-5.04 L 28.32,-5.04 L 28.32,-5.52 z M 29.52,-5.52 L 28.8,-5.52 L 28.8,-5.04 L 29.52,-5.04 L 29.52,-5.52 z M 30.48,-5.52 L 30,-5.52 L 30,-5.04 L 30.48,-5.04 L 30.48,-5.52 z M 31.68,-5.52 L 31.2,-5.52 L 31.2,-5.04 L 31.68,-5.04 L 31.68,-5.52 z M 32.88,-5.52 L 32.16,-5.52 L 32.16,-5.04 L 32.88,-5.04 L 32.88,-5.52 z M 33.84,-5.52 L 33.36,-5.52 L 33.36,-5.04 L 33.84,-5.04 L 33.84,-5.52 z M 35.04,-5.52 L 34.32,-5.52 L 34.32,-5.04 L 35.04,-5.04 L 35.04,-5.52 z M 36,-5.52 L 35.52,-5.52 L 35.52,-5.04 L 36,-5.04 L 36,-5.52 z M 37.2,-5.52 L 36.72,-5.52 L 36.72,-5.04 L 37.2,-5.04 L 37.2,-5.52 z"
         style="fill:#1f1a17;fill-opacity:1;fill-rule:evenodd;stroke:none"
         id="path331" />
    </g>
    <g
       id="g341"
       transform="matrix(1.25,0,0,-1.25,432.32679,-40.786032)">
      <path
         d="M 0,0 L 0.24,1.92 L 0.48,3.36 L 0.96,4.8 L 1.68,6.24 L 2.4,7.44 L 6,10.32 L 9.84,3.84 L 8.4,2.4 L 7.92,1.2 L 7.92,0 L 0,0"
         style="fill:#1f1a17;fill-opacity:1;fill-rule:evenodd;stroke:none"
         id="path343" />
    </g>
    <g
       id="g345"
       transform="matrix(1.25,0,0,-1.25,432.32679,-40.786032)">
      <path
         d="M 0,0 L 0.24,1.92 L 0.48,3.36 L 0.96,4.8 L 1.68,6.24 L 2.4,7.44 L 6,10.32 L 9.84,3.84 L 8.4,2.4 L 7.92,1.2 L 7.92,0 L 0,0"
         style="fill:none;stroke:#1f1a17;stroke-width:0.23999999;stroke-linecap:round;stroke-linejoin:round;stroke-miterlimit:10;stroke-dasharray:none;stroke-opacity:1"
         id="path347" />
    </g>
    <g
       id="g349"
       transform="matrix(1.25,0,0,-1.25,454.52679,-53.686032)">
      <path
         d="M 0,0 C 3.962,-2.114 5.68,-6.005 6,-10.32 L -1.44,-10.32 L -1.68,-9.12 L -2.16,-8.16 L -2.88,-7.2 L -3.84,-6.48 L 0,0"
         style="fill:#1f1a17;fill-opacity:1;fill-rule:evenodd;stroke:none"
         id="path351" />
    </g>
    <g
       id="g353"
       transform="matrix(1.25,0,0,-1.25,454.52679,-53.686032)">
      <path
         d="M 0,0 C 3.962,-2.114 5.68,-6.005 6,-10.32 L -1.44,-10.32 L -1.68,-9.12 L -2.16,-8.16 L -2.88,-7.2 L -3.84,-6.48 L 0,0"
         style="fill:none;stroke:#1f1a17;stroke-width:0.23999999;stroke-linecap:round;stroke-linejoin:round;stroke-miterlimit:10;stroke-dasharray:none;stroke-opacity:1"
         id="path355" />
    </g>
    <g
       id="g357"
       transform="matrix(1.25,0,0,-1.25,454.52679,-27.961032)">
      <path
         d="M 0,0 C -4.128,-2.077 -7.965,-2.021 -12,0.24 L -8.16,6.66 L -7.2,6.18 L -6,6.18 L -5.04,6.42 L -3.84,6.9 L 0,0"
         style="fill:#1f1a17;fill-opacity:1;fill-rule:evenodd;stroke:none"
         id="path359" />
    </g>
    <g
       id="g361"
       transform="matrix(1.25,0,0,-1.25,454.52679,-27.961032)">
      <path
         d="M 0,0 C -4.128,-2.077 -7.965,-2.021 -12,0.24 L -8.16,6.66 L -7.2,6.18 L -6,6.18 L -5.04,6.42 L -3.84,6.9 L 0,0 z"
         style="fill:none;stroke:#1f1a17;stroke-width:0.23999999;stroke-linecap:round;stroke-linejoin:round;stroke-miterlimit:10;stroke-dasharray:none;stroke-opacity:1"
         id="path363" />
    </g>
    <g
       id="g365"
       transform="matrix(1.25,0,0,-1.25,447.02679,-44.686032)">
      <path
         d="M 0,0 C 1.664,0.184 3.197,-1.493 3.12,-3.12 C 3.197,-4.746 1.664,-6.423 0,-6.24 C -4.188,-5.943 -4.188,-0.296 0,0"
         style="fill:#1f1a17;fill-opacity:1;fill-rule:evenodd;stroke:none"
         id="path367" />
    </g>
    <g
       id="g369"
       transform="matrix(1.25,0,0,-1.25,447.02679,-44.686032)">
      <path
         d="M 0,0 C 1.664,0.184 3.197,-1.493 3.12,-3.12 C 3.197,-4.746 1.664,-6.423 0,-6.24 C -4.188,-5.943 -4.188,-0.296 0,0 z"
         style="fill:none;stroke:#1f1a17;stroke-width:0.23999999;stroke-linecap:round;stroke-linejoin:round;stroke-miterlimit:10;stroke-dasharray:none;stroke-opacity:1"
         id="path371" />
    </g>
    <g
       id="g307"
       transform="matrix(1.25,0,0,-1.25,399.40179,-21.923532)">
      <path
         d="M 0,0 L 74.1,0"
         style="fill:none;stroke:#1f1a17;stroke-width:0.47999999;stroke-linecap:round;stroke-linejoin:round;stroke-miterlimit:10;stroke-dasharray:none;stroke-opacity:1"
         id="path309" />
    </g>
  </g>
</svg>
