<?xml version="1.0" encoding="UTF-8" standalone="no"?>
<!-- Created with Inkscape (http://www.inkscape.org/) -->

<svg
   xmlns:dc="http://purl.org/dc/elements/1.1/"
   xmlns:cc="http://creativecommons.org/ns#"
   xmlns:rdf="http://www.w3.org/1999/02/22-rdf-syntax-ns#"
   xmlns:svg="http://www.w3.org/2000/svg"
   xmlns="http://www.w3.org/2000/svg"
   xmlns:sodipodi="http://sodipodi.sourceforge.net/DTD/sodipodi-0.dtd"
   xmlns:inkscape="http://www.inkscape.org/namespaces/inkscape"
   width="108.825"
   height="108.3"
   id="svg2971"
   sodipodi:version="0.32"
   inkscape:version="0.48.5 r10040"
   version="1.0"
   sodipodi:docname="transportsign_fissile.svg"
   inkscape:output_extension="org.inkscape.output.svg.inkscape">
  <defs
     id="defs2973">
    <inkscape:perspective
       sodipodi:type="inkscape:persp3d"
       inkscape:vp_x="0 : 526.18109 : 1"
       inkscape:vp_y="0 : 1000 : 0"
       inkscape:vp_z="744.09448 : 526.18109 : 1"
       inkscape:persp3d-origin="372.04724 : 350.78739 : 1"
       id="perspective2979" />
  </defs>
  <sodipodi:namedview
     id="base"
     pagecolor="#ffffff"
     bordercolor="#666666"
     borderopacity="1.0"
     inkscape:pageopacity="0.0"
     inkscape:pageshadow="2"
     inkscape:zoom="8.5377686"
     inkscape:cx="28.201827"
     inkscape:cy="49.977526"
     inkscape:document-units="px"
     inkscape:current-layer="layer1"
     showgrid="true"
     inkscape:window-width="1713"
     inkscape:window-height="1009"
     inkscape:window-x="205"
     inkscape:window-y="48"
     inkscape:window-maximized="1" />
  <metadata
     id="metadata2976">
    <rdf:RDF>
      <cc:Work
         rdf:about="">
        <dc:format>image/svg+xml</dc:format>
        <dc:type
           rdf:resource="http://purl.org/dc/dcmitype/StillImage" />
      </cc:Work>
    </rdf:RDF>
  </metadata>
  <g
     inkscape:label="Calque 1"
     inkscape:groupmode="layer"
     id="layer1"
     transform="translate(-306.27857,206.05048)">
    <path
       sodipodi:type="star"
       style="fill:#ffffff"
       id="path3013"
       sodipodi:sides="4"
       sodipodi:cx="56.337906"
       sodipodi:cy="54.538883"
       sodipodi:r1="44.625397"
       sodipodi:r2="31.55492"
       sodipodi:arg1="-1.573421"
       sodipodi:arg2="-0.78802283"
       inkscape:flatsided="true"
       inkscape:rounded="0"
       inkscape:randomized="0"
       d="M 56.220779,9.9136402 100.96315,54.421756 56.455033,99.164126 11.712663,54.65601 z"
       transform="matrix(1.2165354,0,0,1.2178477,292.14682,-218.51729)" />
    <g
       id="g153"
       transform="matrix(1.25,0,0,-1.25,310.47857,-149.05048)">
      <path
         d="M 0,0 L -0.48,-0.48 L -3.12,2.16 L -2.4,2.64 L 0,0 z M 4.08,-4.08 L 3.6,-4.56 L 0.96,-1.92 L 1.68,-1.44 L 4.08,-4.08 z M 8.16,-8.16 L 7.68,-8.64 L 5.04,-6 L 5.76,-5.52 L 8.16,-8.16 z M 12.24,-12.24 L 11.76,-12.72 L 9.36,-10.08 L 9.84,-9.6 L 12.24,-12.24 z M 16.32,-16.32 L 15.84,-16.8 L 13.44,-14.16 L 13.92,-13.68 L 16.32,-16.32 z M 20.4,-20.4 L 19.92,-20.88 L 17.52,-18.24 L 18,-17.76 L 20.4,-20.4 z M 24.48,-24.24 L 24,-24.96 L 21.6,-22.32 L 22.08,-21.84 L 24.48,-24.24 z M 28.56,-28.32 L 28.08,-28.8 L 25.68,-26.4 L 26.16,-25.92 L 28.56,-28.32 z M 32.64,-32.4 L 32.16,-32.88 L 29.76,-30.48 L 30.24,-30 L 32.64,-32.4 z M 36.72,-36.48 L 36.24,-36.96 L 33.84,-34.56 L 34.32,-34.08 L 36.72,-36.48 z M 40.5,-40.8 L 40.02,-40.8 L 37.92,-38.64 L 38.4,-38.16 L 40.5,-40.32 L 40.5,-40.8 z M 40.5,-40.8 L 40.26,-41.04 L 40.02,-40.8 L 40.5,-40.8 z M 40.26,-40.08 L 40.74,-40.56 L 40.5,-40.8 L 40.02,-40.32 L 40.26,-40.08 z M 44.34,-36 L 44.82,-36.48 L 42.42,-38.88 L 41.94,-38.4 L 44.34,-36 z M 48.42,-31.92 L 48.9,-32.4 L 46.5,-35.04 L 46.02,-34.32 L 48.42,-31.92 z M 52.5,-27.84 L 52.98,-28.32 L 50.58,-30.96 L 50.1,-30.24 L 52.5,-27.84 z M 56.58,-23.76 L 57.06,-24.24 L 54.66,-26.88 L 54.18,-26.16 L 56.58,-23.76 z M 60.66,-19.68 L 61.14,-20.16 L 58.74,-22.8 L 58.26,-22.08 L 60.66,-19.68 z M 64.74,-15.6 L 65.22,-16.08 L 62.82,-18.72 L 62.34,-18 L 64.74,-15.6 z M 68.82,-11.52 L 69.3,-12 L 66.9,-14.64 L 66.42,-14.16 L 68.82,-11.52 z M 72.9,-7.44 L 73.38,-7.92 L 70.98,-10.56 L 70.5,-10.08 L 72.9,-7.44 z M 76.98,-3.36 L 77.46,-3.84 L 75.06,-6.48 L 74.58,-6 L 76.98,-3.36 z M 81.06,0.72 L 81.54,0.24 L 79.14,-2.4 L 78.66,-1.92 L 81.06,0.72 z M 83.46,2.64 L 83.46,2.16 L 83.22,1.68 L 82.74,2.16 L 82.98,2.64 L 83.46,2.64 z M 83.46,2.64 L 83.7,2.4 L 83.46,2.16 L 83.46,2.64 z M 80.82,4.32 L 81.3,4.8 L 83.46,2.64 L 82.98,2.16 L 80.82,4.32 z M 76.74,8.4 L 77.22,8.88 L 79.62,6.24 L 79.14,5.76 L 76.74,8.4 z M 72.66,12.48 L 73.14,12.96 L 75.54,10.32 L 75.06,9.84 L 72.66,12.48 z M 68.58,16.56 L 69.06,17.04 L 71.46,14.4 L 70.98,13.92 L 68.58,16.56 z M 64.5,20.64 L 64.98,21.12 L 67.38,18.48 L 66.9,18 L 64.5,20.64 z M 60.42,24.72 L 60.9,25.2 L 63.3,22.56 L 62.82,22.08 L 60.42,24.72 z M 56.34,28.8 L 56.82,29.28 L 59.22,26.64 L 58.74,26.16 L 56.34,28.8 z M 52.26,32.88 L 52.74,33.36 L 55.14,30.72 L 54.66,30.24 L 52.26,32.88 z M 48.18,36.96 L 48.66,37.44 L 51.06,34.8 L 50.58,34.32 L 48.18,36.96 z M 44.1,41.04 L 44.58,41.52 L 46.98,38.88 L 46.5,38.4 L 44.1,41.04 z M 40.02,45.36 L 40.5,45.36 L 42.9,42.96 L 42.42,42.48 L 40.02,44.88 L 40.02,45.36 z M 40.02,45.36 L 40.26,45.6 L 40.5,45.36 L 40.02,45.36 z M 40.5,44.88 L 40.02,45.36 L 40.5,44.88 z M 36.48,40.8 L 36,41.28 L 38.4,43.92 L 38.88,43.2 L 36.48,40.8 z M 32.4,36.72 L 31.92,37.2 L 34.32,39.84 L 34.8,39.36 L 32.4,36.72 z M 28.32,32.64 L 27.84,33.12 L 30.24,35.76 L 30.72,35.28 L 28.32,32.64 z M 24.24,28.56 L 23.76,29.04 L 26.16,31.68 L 26.64,31.2 L 24.24,28.56 z M 20.16,24.48 L 19.68,24.96 L 22.08,27.6 L 22.56,27.12 L 20.16,24.48 z M 16.08,20.4 L 15.6,20.88 L 18,23.52 L 18.48,23.04 L 16.08,20.4 z M 12,16.32 L 11.52,16.8 L 13.92,19.44 L 14.4,18.96 L 12,16.32 z M 7.92,12.24 L 7.44,12.96 L 9.84,15.36 L 10.32,14.88 L 7.92,12.24 z M 3.84,8.16 L 3.12,8.88 L 5.76,11.28 L 6.24,10.8 L 3.84,8.16 z M -0.24,4.32 L -0.96,4.8 L 1.68,7.2 L 2.16,6.72 L -0.24,4.32 z M -3.12,2.16 L -3.12,2.64 L -2.4,3.12 L -1.92,2.64 L -2.4,2.16 L -3.12,2.16 z M -3.12,2.16 L -3.36,2.4 L -3.12,2.64 L -3.12,2.16"
         style="fill:#1f1a17;fill-opacity:1;fill-rule:nonzero;stroke:none"
         id="path155" />
    </g>
    <g
       id="g405"
       transform="matrix(1.25,0,0,-1.25,339.57857,-155.05048)">
      <path
         d="M 0,0 L 0,6.72 L 4.56,6.72 L 4.56,6 L 0.96,6 L 0.96,3.84 L 4.08,3.84 L 4.08,3.12 L 0.96,3.12 L 0.96,0 L 0,0 z M 6.72,0 L 5.76,0 L 5.76,6.72 L 6.72,6.72 L 6.72,0 z M 7.92,2.16 L 8.88,2.4 C 8.737,1.273 9.572,1.117 10.32,0.72 L 11.28,0.72 L 11.52,0.96 L 12,1.2 L 12.24,1.2 L 12.24,1.68 L 12.48,1.92 L 12.24,2.16 L 12.24,2.4 L 12,2.64 L 11.52,2.88 L 11.28,2.88 L 10.56,3.12 L 9.6,3.36 L 8.64,3.84 L 8.4,4.08 L 8.4,4.56 L 8.16,5.04 L 8.4,5.52 L 8.4,6 C 10.301,6.875 9.102,6.72 11.28,6.72 C 12.264,6.081 13.121,6.368 12.96,4.8 L 12.24,4.8 L 11.76,5.76 L 11.28,6 L 9.84,6 L 9.36,5.76 L 9.12,5.52 L 9.12,4.8 L 9.36,4.56 L 9.84,4.32 L 10.56,4.08 L 11.52,3.84 L 12,3.6 L 12.72,3.36 C 13.498,2.252 13.471,0.757 12,0.24 L 11.52,0 L 10.08,0 L 8.64,0.48 L 8.4,0.96 L 8.16,1.68 L 7.92,2.16 z M 14.16,2.16 L 14.88,2.4 L 15.12,1.92 L 15.12,1.44 L 15.6,1.2 L 15.84,0.96 L 16.32,0.72 L 17.22,0.72 L 18.18,1.2 L 18.42,1.2 C 18.295,2.135 18.83,2.471 17.7,2.88 L 17.22,2.88 L 16.56,3.12 L 15.84,3.36 L 14.88,3.84 L 14.64,4.08 L 14.4,4.56 C 14.326,6.392 14.528,5.828 16.08,6.72 L 17.46,6.72 L 18.9,6 L 19.14,5.28 L 19.14,4.8 L 18.42,4.8 L 17.94,5.76 L 17.46,6 L 16.08,6 L 15.6,5.76 L 15.36,5.52 L 15.12,5.04 L 15.84,4.32 L 16.74,4.08 L 17.7,3.84 C 18.978,3.247 19.53,2.964 19.38,1.44 L 19.14,0.96 L 18.66,0.48 L 18.18,0.24 L 17.46,0 L 16.98,0 C 15.696,-0.201 13.895,0.593 14.16,2.16 z M 21.54,0 L 20.58,0 L 20.58,6.72 L 21.54,6.72 L 21.54,0 z M 22.98,0 L 22.98,6.72 L 23.94,6.72 L 23.94,0.96 L 27.3,0.96 L 27.3,0 L 22.98,0 z M 28.26,0 L 28.26,6.72 L 33.06,6.72 L 33.06,6 L 29.22,6 L 29.22,3.84 L 32.82,3.84 L 32.82,3.12 L 29.22,3.12 L 29.22,0.96 L 33.3,0.96 L 33.3,0 L 28.26,0"
         style="fill:#1f1a17;fill-opacity:1;fill-rule:evenodd;stroke:none"
         id="path407" />
    </g>
    <g
       id="g409"
       transform="matrix(1.25,0,0,-1.25,314.67857,-152.05048)">
      <path
         d="M 0,0 L 73.86,0"
         style="fill:none;stroke:#1f1a17;stroke-width:0.47999999;stroke-linecap:round;stroke-linejoin:round;stroke-miterlimit:10;stroke-dasharray:none;stroke-opacity:1"
         id="path411" />
    </g>
    <g
       id="g413"
       transform="matrix(1.25,0,0,-1.25,357.87857,-121.75048)">
      <path
         d="M 0,0 L 0,-1.2 L 3.3,-1.2 L 1.68,-4.08 L 0.96,-6.96 L 2.34,-6.96 L 3.06,-3.84 L 4.98,-0.96 L 4.98,0 L 0,0"
         style="fill:#1f1a17;fill-opacity:1;fill-rule:evenodd;stroke:none"
         id="path415" />
    </g>
    <g
       id="g417"
       transform="matrix(1.25,0,0,-1.25,357.87857,-121.75048)">
      <path
         d="M 0,0 L 0,-1.2 L 3.3,-1.2 L 1.68,-4.08 L 0.96,-6.96 L 2.34,-6.96 L 3.06,-3.84 L 4.98,-0.96 L 4.98,0 L 0,0 z"
         style="fill:none;stroke:#1f1a17;stroke-width:0.23999999;stroke-linecap:round;stroke-linejoin:round;stroke-miterlimit:10;stroke-dasharray:none;stroke-opacity:1"
         id="path419" />
    </g>
    <g
       id="g421"
       transform="matrix(1.25,0,0,-1.25,314.07857,-152.05048)">
      <path
         d="M 0,0 L 37.38,-37.2 L 74.58,0 L 37.38,37.2 L 0,0 z"
         style="fill:none;stroke:#1f1a17;stroke-width:0.71899998;stroke-linecap:round;stroke-linejoin:round;stroke-miterlimit:10;stroke-dasharray:none;stroke-opacity:1"
         id="path423" />
    </g>
    <g
       id="g505"
       transform="matrix(1.25,0,0,-1.25,348.27857,-137.05048)">
      <path
         d="M 0,0 L 0.48,0 L 0.24,-0.48 L -0.24,-0.96 L -1.2,-0.96 L -1.92,-0.24 L -1.92,1.2 L -1.2,1.92 L -0.24,1.92 L 0.24,1.68 L 0.24,1.44 L 0.48,1.2 L 0,0.96 L -0.24,1.2 L -0.24,1.44 L -0.96,1.44 L -1.44,0.96 L -1.44,0 L -0.96,-0.48 L -0.48,-0.48 L 0,0 z M 0.96,-0.96 L 0.96,1.92 L 2.88,1.92 L 2.88,1.68 L 3.36,1.2 L 3.12,0.72 L 3.12,0.48 L 2.88,0.48 L 2.4,0.24 L 2.64,0.24 L 2.88,0 L 3.36,-0.96 L 2.88,-0.96 L 2.4,-0.24 L 1.92,0.24 L 1.44,0.24 L 1.44,-0.96 L 0.96,-0.96 z M 1.44,0.72 L 2.64,0.72 L 2.64,1.2 L 2.4,1.44 L 1.44,1.44 L 1.44,0.72 z M 4.32,-0.96 L 3.84,-0.96 L 3.84,1.92 L 4.32,1.92 L 4.32,-0.96 z M 5.52,-0.96 L 5.52,1.44 L 4.56,1.44 L 4.56,1.92 L 6.96,1.92 L 6.96,1.44 L 6,1.44 L 6,-0.96 L 5.52,-0.96 z M 7.92,-0.96 L 7.2,-0.96 L 7.2,1.92 L 7.92,1.92 L 7.92,-0.96 z M 10.02,0 L 10.74,0 C 10.14,-1.531 8.507,-1.23 8.16,0.48 L 8.4,1.2 L 9.12,1.92 L 10.02,1.92 L 10.5,1.44 L 10.5,1.2 L 10.02,0.96 L 10.02,1.2 L 9.78,1.44 L 9.36,1.44 L 8.88,0.96 L 8.88,0 L 9.12,-0.24 L 9.12,-0.48 L 9.78,-0.48 L 9.78,-0.24 L 10.02,-0.24 L 10.02,0 z M 13.62,-0.96 L 13.14,-0.96 L 12.66,-0.24 L 11.7,-0.24 L 11.46,-0.96 L 10.74,-0.96 L 11.94,1.92 L 12.42,1.92 L 13.62,-0.96 z M 12.66,0.24 L 12.18,1.2 L 11.94,0.24 L 12.66,0.24 z M 13.86,-0.96 L 13.86,1.92 L 14.58,1.92 L 14.58,-0.48 L 16.02,-0.48 L 16.02,-0.96 L 13.86,-0.96 z M 16.98,-0.96 L 16.26,-0.96 L 16.26,1.92 L 16.98,1.92 L 16.98,-0.96 z M 17.94,-0.96 L 17.94,1.44 L 17.22,1.44 L 17.22,1.92 L 19.38,1.92 L 19.38,1.44 L 18.66,1.44 L 18.66,-0.96 L 17.94,-0.96 z M 20.58,-0.96 L 20.58,0.24 L 19.62,1.92 L 20.1,1.92 L 20.82,0.72 L 21.54,1.92 L 22.26,1.92 L 21.06,0.24 L 21.06,-0.96 L 20.58,-0.96 z M -4.08,-4.32 L -3.6,-4.32 L -3.36,-4.56 L -3.36,-4.8 L -2.4,-4.8 L -2.4,-4.32 L -2.64,-4.08 L -3.12,-4.08 L -3.36,-3.84 L -3.6,-3.84 L -3.84,-3.6 L -3.84,-2.88 L -3.6,-2.64 L -3.12,-2.4 L -2.4,-2.4 L -1.92,-2.88 L -1.92,-3.36 L -2.4,-3.36 L -2.4,-3.12 L -2.64,-3.12 L -2.64,-2.88 L -3.12,-2.88 L -3.36,-3.12 L -3.36,-3.36 L -3.12,-3.36 L -2.88,-3.6 L -2.4,-3.6 L -2.16,-3.84 L -1.92,-3.84 L -1.92,-4.32 L -1.68,-4.56 L -1.92,-4.8 L -1.92,-5.04 L -2.16,-5.04 L -2.4,-5.28 L -3.36,-5.28 L -3.84,-4.8 L -4.08,-4.32 z M 1.2,-5.28 L 0.72,-5.28 L 0.48,-4.56 L -0.72,-4.56 L -0.96,-5.28 L -1.68,-5.28 L -0.48,-2.4 L 0,-2.4 L 1.2,-5.28 z M 0.24,-4.08 L -0.24,-3.12 L -0.48,-4.08 L 0.24,-4.08 z M 1.44,-5.28 L 1.44,-2.4 L 3.36,-2.4 L 3.36,-2.88 L 2.16,-2.88 L 2.16,-3.6 L 3.36,-3.6 L 3.36,-4.08 L 2.16,-4.08 L 2.16,-5.28 L 1.44,-5.28 z M 3.84,-5.28 L 3.84,-2.4 L 6,-2.4 L 6,-2.88 L 4.56,-2.88 L 4.56,-3.6 L 6,-3.6 L 6,-4.08 L 4.56,-4.08 L 4.56,-4.8 L 6,-4.8 L 6,-5.28 L 3.84,-5.28 z M 7.2,-5.28 L 7.2,-2.88 L 6.24,-2.88 L 6.24,-2.4 L 8.64,-2.4 L 8.64,-2.88 L 7.68,-2.88 L 7.68,-5.28 L 7.2,-5.28 z M 9.6,-5.28 L 9.6,-4.08 L 8.64,-2.4 L 9.36,-2.4 L 9.78,-3.6 L 10.5,-2.4 L 11.22,-2.4 L 10.26,-4.08 L 10.26,-5.28 L 9.6,-5.28 z M 13.14,-5.28 L 12.42,-5.28 L 12.42,-2.4 L 13.14,-2.4 L 13.14,-5.28 z M 13.62,-5.28 L 13.62,-2.4 L 14.1,-2.4 L 15.3,-4.32 L 15.3,-2.4 L 15.78,-2.4 L 15.78,-5.28 L 15.3,-5.28 L 14.1,-3.36 L 14.1,-5.28 L 13.62,-5.28 z M 16.5,-2.4 L 17.7,-2.4 L 17.94,-2.64 L 18.18,-2.64 C 18.895,-3.364 18.613,-2.892 18.66,-3.84 L 18.66,-4.8 L 18.42,-5.04 L 18.18,-5.04 L 17.94,-5.28 L 16.5,-5.28 L 16.5,-2.4 z M 16.98,-2.88 L 16.98,-4.8 L 17.94,-4.8 L 17.94,-4.56 L 18.18,-4.32 L 18.18,-3.36 L 17.7,-2.88 L 16.98,-2.88 z M 19.14,-5.28 L 19.14,-2.4 L 21.3,-2.4 L 21.3,-2.88 L 19.86,-2.88 L 19.86,-3.6 L 21.3,-3.6 L 21.3,-4.08 L 19.86,-4.08 L 19.86,-4.8 L 21.3,-4.8 L 21.3,-5.28 L 19.14,-5.28 z M 21.54,-5.28 L 22.5,-3.84 L 21.54,-2.4 L 22.26,-2.4 L 22.98,-3.36 L 23.46,-2.4 L 24.18,-2.4 L 23.22,-3.84 L 24.18,-5.28 L 23.46,-5.28 L 22.98,-4.32 L 22.26,-5.28 L 21.54,-5.28"
         style="fill:#1f1a17;fill-opacity:1;fill-rule:evenodd;stroke:none"
         id="path507" />
    </g>
    <path
       d="M 380.00357,-128.65048 L 341.67857,-128.65048 L 341.67857,-149.65048 L 380.00357,-149.65048 L 380.00357,-128.65048 z"
       style="fill:none;stroke:#1f1a17;stroke-width:0.59999996;stroke-linecap:round;stroke-linejoin:round;stroke-miterlimit:10;stroke-dasharray:none;stroke-opacity:1"
       id="path509" />
  </g>
</svg>
