<?xml version="1.0" encoding="UTF-8" standalone="no"?>
<!-- Created with Inkscape (http://www.inkscape.org/) -->

<svg
   xmlns:dc="http://purl.org/dc/elements/1.1/"
   xmlns:cc="http://creativecommons.org/ns#"
   xmlns:rdf="http://www.w3.org/1999/02/22-rdf-syntax-ns#"
   xmlns:svg="http://www.w3.org/2000/svg"
   xmlns="http://www.w3.org/2000/svg"
   xmlns:sodipodi="http://sodipodi.sourceforge.net/DTD/sodipodi-0.dtd"
   xmlns:inkscape="http://www.inkscape.org/namespaces/inkscape"
   id="svg2"
   version="1.1"
   inkscape:version="0.47 r22583"
   width="1000"
   height="1000"
   sodipodi:docname="ADR pollution.svg">
  <metadata
     id="metadata8">
    <rdf:RDF>
      <cc:Work
         rdf:about="">
        <dc:format>image/svg+xml</dc:format>
        <dc:type
           rdf:resource="http://purl.org/dc/dcmitype/StillImage" />
        <dc:title></dc:title>
      </cc:Work>
    </rdf:RDF>
  </metadata>
  <defs
     id="defs6">
    <inkscape:perspective
       sodipodi:type="inkscape:persp3d"
       inkscape:vp_x="0 : 0.5 : 1"
       inkscape:vp_y="0 : 1000 : 0"
       inkscape:vp_z="1 : 0.5 : 1"
       inkscape:persp3d-origin="0.5 : 0.33333333 : 1"
       id="perspective10" />
  </defs>
  <sodipodi:namedview
     pagecolor="#ffffff"
     bordercolor="#666666"
     borderopacity="1"
     objecttolerance="10"
     gridtolerance="10"
     guidetolerance="10"
     inkscape:pageopacity="0"
     inkscape:pageshadow="2"
     inkscape:window-width="1280"
     inkscape:window-height="976"
     id="namedview4"
     showgrid="false"
     inkscape:zoom="0.708"
     inkscape:cx="500.15955"
     inkscape:cy="500.06453"
     inkscape:window-x="0"
     inkscape:window-y="24"
     inkscape:window-maximized="1"
     inkscape:current-layer="svg2" />
  <path
     style="fill:#ffffff;stroke:none;stroke-width:1px;stroke-linecap:butt;stroke-linejoin:miter;stroke-opacity:1;fill-opacity:1"
     d="m 498.58757,19.597456 0,0.176555 L 22.59887,498.58757 501.41243,977.40113 977.40113,501.41243 498.58757,19.597456 z"
     id="path3689"
     sodipodi:nodetypes="cccccc" />
  <g
     id="g2866"
     transform="translate(-4.2372927,-4.2372881)" />
  <path
     style="fill:#000000;fill-opacity:1;stroke:none"
     d="M 250.15943,749.93547 0.15970964,499.93574 250.15943,249.93547 l 250,-250.00000075 250,250.00000075 249.99997,250 -249.99997,250 c -136.76148,136.73121 -248.982,250 -250,250 -1.018,0 -112.81881,-112.81599 -250,-250 z M 730.15935,729.93538 960.15943,499.93547 C 880.61823,417.8259 811.16908,350.58982 730.15935,269.93555 L 500.15943,39.935637 270.15952,269.93555 c -115.38768,114.97657 -230.705476,229.13728 -230.000003,230 0.70548,0.86272 116.774353,116.4833 231.277003,231.27683 114.50265,114.79352 228.61923,228.5276 228.72291,228.72292 L 730.15935,729.93538 z"
     id="path2890"
     sodipodi:nodetypes="cccccccsccccccsscc" />
  <path
     style="fill:#000000;fill-opacity:1;stroke:none"
     d="m 364.03298,672.66239 c -52.27035,-0.45089 -64.67655,-1.07066 -64.67655,-3.231 0,-4.04213 41.7046,-13.82314 63.17245,-14.81589 17.1681,-0.79391 19.9584,-1.62486 57.156,-17.02112 21.5087,-8.90255 39.9305,-16.91697 40.9374,-17.80976 1.0243,-0.90824 -0.586,-2.54212 -3.6555,-3.70915 -3.6157,-1.37469 -5.2566,-3.28041 -4.8129,-5.58957 0.5167,-2.68884 3.5223,-3.81872 12.9227,-4.85798 17.2975,-1.91232 40.7304,-13.46132 53.6463,-26.43978 5.6432,-5.67048 16.1263,-18.86372 23.2959,-29.31832 7.1695,-10.45459 19.2419,-25.57084 26.8274,-33.59167 l 13.7919,-14.58334 -62.4246,0 -62.4246,0 0,25.90929 0,25.90929 27.5752,14.61099 27.5753,14.611 -33.0903,5.10423 c -18.1997,2.80732 -34.2388,5.84694 -35.6424,6.75468 -1.4037,0.90773 -5.522,6.0604 -9.1518,11.45037 l -6.5997,9.79994 -10.5266,-9.20845 -10.5267,-9.20845 -22.4365,1.5162 c -32.5964,2.20275 -32.38,2.20265 -33.3937,0.016 -0.5114,-1.10301 9.4157,-8.00511 22.0602,-15.33798 l 22.99,-13.33217 0.5488,-34.2975 0.5487,-34.29748 -49.18155,0 c -42.3798,0 -49.1814,-0.41602 -49.1814,-3.00821 0,-2.59166 6.7658,-3.00821 48.8593,-3.00821 l 48.85935,0 1.4177,-19.31293 c 0.7797,-10.62211 0.6777,-20.00513 -0.2266,-20.85113 -1.9605,-1.83406 -31.8763,-18.38138 -52.29315,-28.92492 -14.2248,-7.3459 -14.7779,-7.45936 -24.7292,-5.07209 -15.7357,3.77494 -16.5802,0.14982 -2.5423,-10.91349 6.4568,-5.0887 15.591,-11.12964 20.2982,-13.42431 l 8.5584,-4.17213 21.52375,10.2273 c 15.4145,7.32446 21.6908,9.46008 22.1125,7.52422 0.3239,-1.48669 -1.332,-7.83712 -3.6798,-14.11206 -4.0251,-10.75814 -5.975,-12.78172 -34.1805,-35.47209 -28.16535,-22.65799 -29.91195,-24.46903 -29.91195,-31.01508 0,-3.8236 0.4918,-6.952 1.093,-6.952 0.6012,0 13.6981,7.67094 29.10435,17.04652 15.4062,9.37559 28.2683,17.04653 28.5826,17.04653 0.9597,0 -2.1854,-29.52678 -3.6718,-34.47192 -0.7662,-2.54915 -7.3021,-15.36671 -14.5241,-28.48347 -12.9631,-23.54389 -14.0856,-28.43607 -7.062,-30.77729 1.1829,-0.3943 8.1597,8.45422 15.5041,19.66336 7.3443,11.20915 13.744,19.98954 14.2216,19.51198 0.4775,-0.47756 2.4928,-6.22117 4.4783,-12.76358 3.1711,-10.44895 4.2861,-11.9738 9.1701,-12.54104 l 5.5601,-0.64576 -1.62,12.6786 c -3.786,29.6298 -2.2803,42.00172 10.3755,85.25446 6.5159,22.26855 12.5347,40.06327 13.3752,39.54382 0.8405,-0.51946 6.6506,-8.36086 12.9113,-17.42534 l 11.3831,-16.48088 -1.2927,-32.08757 c -0.7111,-17.64817 -1.8625,-39.98413 -2.5588,-49.63547 l -1.266,-17.54789 5.2106,0 c 5.8796,0 5.5948,-0.93055 10.3458,33.81232 1.5627,11.42722 3.2172,21.15283 3.6769,21.61248 0.8181,0.81813 10.3543,-10.08237 34.4873,-39.42126 l 12.0328,-14.62856 0.6202,7.29672 c 0.5336,6.27877 -1.0579,9.50114 -11.4085,23.09825 -11.5849,15.21857 -14.3181,19.47444 -26.6071,41.42983 -5.051,9.02405 -5.4958,11.33167 -4.4458,23.06294 1.1284,12.60675 -0.2535,18.98599 -8.4716,39.10673 -1.1608,2.84205 0.9482,1.79767 7.237,-3.58371 4.8813,-4.17706 10.7043,-7.92004 12.9399,-8.31773 2.2356,-0.3977 10.3121,-1.66375 17.9478,-2.81346 l 13.883,-2.09036 20.2442,-20.17537 c 18.1266,-18.06489 26.945,-24.43897 24.7657,-17.90114 -0.417,1.25082 -9.2912,15.65256 -19.7205,32.00387 l -18.9624,29.72966 -11.0301,2.31169 c -8.6356,1.80986 -12.4205,3.89598 -17.4348,9.6097 -3.5226,4.0139 -12.7523,14.51771 -20.5104,23.34179 -13.6106,15.48067 -14.1073,16.41333 -14.1514,26.57252 l -0.046,10.52874 65.6793,-0.006 65.6792,-0.006 12.0329,-8.0329 c 16.9682,-11.3277 31.2663,-16.25484 50.8676,-17.52904 l 16.7745,-1.09044 -1.4608,4.80933 c -0.8034,2.64512 -3.2658,7.78978 -5.4718,11.43258 -2.2061,3.6428 -3.5059,7.12844 -2.8885,7.74586 0.6174,0.61743 9.9706,-1.57692 20.7849,-4.87633 l 19.6623,-5.99893 0.6418,5.95405 c 2.0443,18.96211 -18.896,56.49438 -42.2825,75.78469 l -13.3722,11.0301 5.4462,4.55453 c 2.9955,2.50498 11.0866,8.31688 17.9804,12.91533 6.8939,4.59845 12.526,8.86616 12.5158,9.48381 -0.01,0.61762 -7.6811,4.62676 -17.0465,8.90917 -9.3655,4.28241 -17.0281,8.45285 -17.0281,9.26765 0,0.81479 9.2503,2.11349 20.5561,2.886 11.3059,0.77251 22.5587,1.88204 25.0062,2.46561 4.349,1.03697 4.2882,1.27281 -2.6791,10.38526 l -7.1292,9.32421 14.2106,0.58923 14.2106,0.58923 0,13.95045 0,13.95045 -140.8845,-0.47259 c -77.4866,-0.26067 -169.989,-0.72441 -205.5611,-1.03127 z m 190.9195,-67.77242 c 3.6465,-1.52358 13.7345,-4.64183 22.4179,-6.92946 18.4966,-4.87288 43.9184,-16.53903 60.3209,-27.68144 17.2479,-11.71668 38.5663,-35.19568 46.341,-51.03764 5.7583,-11.73334 10.4651,-27.62704 8.158,-27.54774 -0.4201,0.014 -12.0063,3.58739 -25.7471,7.93991 -13.7408,4.3525 -25.157,7.72492 -25.3693,7.49427 -0.2124,-0.23067 3.1335,-6.22336 7.4354,-13.31712 10.4327,-17.20371 10.2738,-18.79143 -1.7046,-17.04003 -34.9857,5.11538 -69.0526,33.13644 -104.9358,86.31309 -16.8327,24.94496 -32.0095,36.27043 -63.0226,47.02969 l -10.0273,3.47878 7.0191,3.09009 c 3.8606,1.69956 16.9337,7.55706 29.0513,13.01668 l 22.0322,9.92658 10.7005,-15.98276 c 7.5036,-11.20769 12.6813,-16.81036 17.3304,-18.7529 l 0,0 z"
     id="path2892" />
  <path
     style="fill:#000000;fill-opacity:1;stroke:none"
     d="m 655.90189,526.77526 c -1.3292,-1.60153 -2.1041,-4.53454 -1.7222,-6.51779 0.9889,-5.135 14.3284,-5.135 15.3173,0 0.8792,4.56538 -3.0715,9.42966 -7.6586,9.42966 -1.9359,0 -4.6074,-1.31035 -5.9365,-2.91187 z"
     id="path2894" />
</svg>
