<?xml version="1.0" encoding="UTF-8" standalone="no"?>
<!-- Created with Inkscape (http://www.inkscape.org/) -->

<svg
   xmlns:dc="http://purl.org/dc/elements/1.1/"
   xmlns:cc="http://creativecommons.org/ns#"
   xmlns:rdf="http://www.w3.org/1999/02/22-rdf-syntax-ns#"
   xmlns:svg="http://www.w3.org/2000/svg"
   xmlns="http://www.w3.org/2000/svg"
   xmlns:xlink="http://www.w3.org/1999/xlink"
   xmlns:sodipodi="http://sodipodi.sourceforge.net/DTD/sodipodi-0.dtd"
   xmlns:inkscape="http://www.inkscape.org/namespaces/inkscape"
   version="1.0"
   width="432.28076"
   height="432.2793"
   viewBox="0 0 432.28076 432.2793"
   id="svg4358"
   xml:space="preserve"
   inkscape:version="0.48.5 r10040"
   sodipodi:docname="transportsign_corrosive.svg"><metadata
     id="metadata24"><rdf:RDF><cc:Work
         rdf:about=""><dc:format>image/svg+xml</dc:format><dc:type
           rdf:resource="http://purl.org/dc/dcmitype/StillImage" /></cc:Work></rdf:RDF></metadata><sodipodi:namedview
     pagecolor="#ffffff"
     bordercolor="#666666"
     borderopacity="1"
     objecttolerance="10"
     gridtolerance="10"
     guidetolerance="10"
     inkscape:pageopacity="0"
     inkscape:pageshadow="2"
     inkscape:window-width="1713"
     inkscape:window-height="1009"
     id="namedview22"
     showgrid="false"
     inkscape:zoom="1.9218927"
     inkscape:cx="68.364194"
     inkscape:cy="149.14572"
     inkscape:window-x="205"
     inkscape:window-y="48"
     inkscape:window-maximized="1"
     inkscape:current-layer="svg4358" /><defs
     id="defs4389" /><path
     sodipodi:type="star"
     style="fill:#ffffff"
     id="path3001"
     sodipodi:sides="4"
     sodipodi:cx="-0.52032042"
     sodipodi:cy="216.86665"
     sodipodi:r1="431.34845"
     sodipodi:r2="305.0094"
     sodipodi:arg1="-0.0036188021"
     sodipodi:arg2="0.78177936"
     inkscape:flatsided="true"
     inkscape:rounded="0"
     inkscape:randomized="0"
     d="M 430.8253,215.30569 1.0406409,648.21228 -431.86595,218.42761 -2.0812817,-214.47897 z"
     transform="matrix(0.5,0,0,0.5,216.97361,108.17317)" /><g
     id="Ebene_1"><path
       d="M 77.848633,186.46289 L 77.848633,204.68945 L 199.59033,204.68945 L 199.59033,186.46289 L 153.9209,186.46289 C 153.9209,186.46289 151.67627,187.13477 151.26514,187.85742 C 150.83984,188.60547 150.49854,188.79297 149.56201,188.79492 C 148.34082,188.79687 147.5,189.25781 145.64111,190.94434 C 145.01562,191.5127 143.72412,192.17676 142.67676,192.46973 C 140.85596,192.97754 138.04346,192.05469 138.04346,192.05469 C 136.51611,191.54102 135.05908,191.12109 134.80664,191.12109 C 133.60547,191.12109 130.42187,189.33594 129.49023,188.13867 C 128.94092,187.4375 127.28711,186.46289 127.28711,186.46289 L 77.848633,186.46289 L 77.848633,186.46289 z M 121.0249,182.06738 C 119.06738,181.0957 118.7749,180.81152 117.87207,179.00586 C 116.83154,176.92969 115.90039,176.19629 114.2876,176.18945 C 113.01221,176.18164 111.73975,174.84082 111.69727,173.45898 C 111.49561,166.81934 111.36719,166.34375 109.23828,164.36621 C 107.1377,162.41406 107.04687,161.94824 108.29639,159.49219 C 108.78174,158.54102 109.49121,156.80566 109.87402,155.63867 C 110.76074,152.92969 111.62988,152.46387 113.08496,153.91895 C 114.30127,155.13574 114.29834,155.71777 113.06396,157.95703 C 111.59863,160.61426 111.71143,161.5752 113.6792,163.23438 C 115.69287,164.93359 116.56299,166.71289 116.22607,168.45508 C 115.59033,171.74609 115.49902,171.41602 117.30176,172.33105 C 119.39502,173.39063 121.2124,175.47949 121.47607,177.12891 C 121.68311,178.4209 122.29297,179.12305 124.42236,180.5166 C 125.77197,181.40137 126.08594,181.89063 125.7915,182.65723 C 125.47314,183.48926 123.36377,183.22852 121.0249,182.06738 z M 131.22852,182.12891 C 130.90576,181.94238 130.25244,181.01367 129.7749,180.06543 C 129.2959,179.11621 128.40137,177.78027 127.78662,177.09473 C 126.69531,175.88184 126.66846,175.77734 126.66846,172.9375 C 126.66846,169.53125 126.34521,168.87793 124.1958,167.92676 C 122.19043,167.04102 121.82764,166.25781 122.37012,163.99512 C 122.91846,161.71191 122.58887,160.74316 120.81982,159.43262 C 118.07471,157.39844 117.34131,155.19043 118.75098,153.20898 C 119.14502,152.65723 119.78906,151.15039 120.18311,149.86035 C 120.68896,148.20215 121.16553,147.31445 121.80322,146.83691 C 122.88037,146.0332 123.50781,146.29785 124.48584,147.96973 C 125.05566,148.94141 125.08252,149.26074 124.74121,150.89062 C 124.53076,151.89551 124.05078,153.30957 123.67529,154.0293 C 122.91846,155.48047 122.87256,155.35449 125.0083,157.70312 C 126.62695,159.4834 126.68262,159.625 126.79736,162.21973 C 126.91553,164.88965 127.45508,165.93066 129.04834,166.55957 C 130.64648,167.19141 131.64697,168.20605 131.64258,169.1875 C 131.64014,169.6582 131.34277,170.98828 130.97949,172.1416 C 130.2085,174.60645 130.28369,174.84277 132.68799,177.4082 C 134.61035,179.45996 134.82031,180.70703 133.42871,181.80273 C 132.45166,182.57129 132.08008,182.62598 131.22852,182.12891 z M 153.57617,176.93066 C 152.71289,176.23145 152.06006,172.36816 152.33838,169.60547 C 152.48633,168.13086 152.73584,167.60254 153.854,166.38867 C 155.31738,164.80078 155.43945,164.45117 155.65186,161.2002 C 155.9043,157.3418 158.26465,153.28125 160.25537,153.28125 C 161.39551,153.28125 162.51709,154.3291 162.51709,155.39551 C 162.51709,156.6377 161.68066,158.69238 160.37695,160.65527 C 159.24121,162.36523 159.19043,162.5625 159.40234,164.36133 C 159.61328,166.16113 159.57227,166.31738 158.62158,167.32227 C 157.11523,168.91309 156.875,169.60254 156.875,172.29492 C 156.875,175.07422 156.42529,176.70898 155.5332,177.18652 C 154.69189,177.63672 154.39941,177.59766 153.57617,176.93066 z M 158.50293,176.31348 C 158.24463,176.00098 158.08447,175.10742 158.11914,174.16895 C 158.19922,171.99023 159.70654,169.09961 162.19092,166.35938 C 164.32812,164 164.69824,163.17383 164.37695,161.49121 C 163.72217,158.06934 163.74072,157.66504 164.61475,156.20117 C 165.08203,155.41699 165.95605,154.40039 166.55713,153.94434 C 170.03906,151.29395 170.45947,150.62695 170.95947,146.96191 C 171.25732,144.78711 172.19336,143.43066 173.6792,143.02051 C 175.1665,142.61133 176.40137,143.08008 177.00244,144.28516 C 177.48975,145.26367 177.16016,146.25098 175.78906,147.91504 C 174.9502,148.93262 174.79932,149.40137 174.79932,150.98145 C 174.79932,153.7793 173.80566,155.39453 170.82178,157.44141 C 169.33691,158.46094 168.19238,159.52344 167.88721,160.16504 C 167.41455,161.16504 167.43311,161.28613 168.2832,162.56836 C 170.05615,165.24805 169.97559,165.51855 166.38428,168.91797 C 164.03125,171.14648 162.9668,172.42773 162.3208,173.81152 C 161.83838,174.84277 161.21387,175.94629 160.93311,176.2666 C 160.29395,176.99316 159.0874,177.01758 158.50293,176.31348 z M 138.78418,172.53418 C 136.8501,171.57129 135.85107,169.91406 135.69189,167.40723 C 135.54688,165.13574 136.15137,163.32324 138.18848,159.91797 C 138.78906,158.91504 139.5166,157.38281 139.80615,156.5166 C 140.09375,155.64941 140.52637,154.94043 140.76367,154.94043 C 141.00342,154.94043 142.32959,156.07129 143.71289,157.45508 C 147.07178,160.81445 147.91211,162.58789 147.91211,166.32129 C 147.91211,169.77832 147.27588,170.91504 144.58447,172.27051 C 142.40918,173.36621 140.61572,173.44629 138.78418,172.53418 z M 141.96631,167.52441 C 142.47266,167.01758 142.60205,166.59473 142.44873,165.94824 C 142.17773,164.80664 141.1582,163.4043 140.60059,163.4043 C 139.47607,163.4043 138.47168,166.94238 139.34814,167.81934 C 139.96143,168.43164 141.19727,168.29297 141.96631,167.52441 z M 297.42529,158.66895 C 296.18994,157.82422 296.73584,156.79395 299.53467,154.70117 C 300.37646,154.06934 300.54053,153.69043 300.67529,152.07324 C 300.84717,150.00879 301.65771,148.96582 303.0874,148.96582 C 303.95654,148.96582 304.40967,148.48926 304.69873,147.27734 C 304.81006,146.80566 305.34521,145.86133 305.88623,145.18066 C 306.47021,144.44629 307.0249,143.2041 307.24756,142.12695 C 307.65771,140.15234 308.46826,139.1543 309.91748,138.83594 C 311.50732,138.4873 311.6792,137.9834 311.08936,135.3916 C 310.39795,132.34863 310.74756,131.38672 312.55225,131.37988 C 313.00732,131.37695 313.82568,131.72949 314.36865,132.16406 C 315.29443,132.90527 315.35889,133.11426 315.43896,135.56543 C 315.48584,137.00195 315.56592,138.69922 315.61475,139.33594 C 315.69873,140.42578 315.60498,140.54688 314.04639,141.32812 C 312.27686,142.21582 312.00928,142.74023 311.92725,145.46191 C 311.8999,146.38184 311.63232,147.03711 311.03076,147.66602 C 310.56006,148.15723 310.02881,149.21094 309.85107,150.00684 C 309.34131,152.28516 308.77686,152.8877 306.57373,153.5 C 305.25537,153.86719 304.53271,154.25391 304.40186,154.66309 C 304.19678,155.3125 302.64209,156.2666 301.79248,156.2666 C 301.51709,156.2666 300.70068,156.86523 299.97803,157.5957 C 298.67725,158.90918 298.11768,159.14355 297.42529,158.66895 z M 276.10303,157.93848 C 274.7085,157.06445 273.73193,154.94043 273.72217,152.76074 C 273.71631,151.3418 274.05322,150.41309 275.89014,146.78613 C 277.08545,144.42383 278.20654,142.34863 278.38232,142.17383 C 278.81396,141.74219 283.34131,146.40527 284.17139,148.13477 C 284.55713,148.94141 284.86084,150.43457 284.94385,151.93652 C 285.10693,154.89063 284.59521,156.10059 282.59814,157.48438 C 280.79639,158.7334 277.7124,158.94824 276.10303,157.93848 z M 279.35889,153.6123 C 280.14893,152.82227 280.18799,152.24023 279.53662,150.98145 C 278.69873,149.3584 277.84521,149.38574 277.11084,151.05566 C 276.53467,152.36719 276.60498,153.52148 277.28369,153.91699 C 278.146,154.41895 278.62061,154.34961 279.35889,153.6123 z M 258.77393,156.1748 C 258.49756,155.95117 258.00146,155.34863 257.67139,154.83203 C 257.3042,154.25879 256.25342,153.52832 254.9624,152.94824 C 253.80225,152.42773 252.68115,151.68066 252.47021,151.28613 C 252.25928,150.8916 251.6001,150.36621 251.00732,150.11816 C 249.38818,149.44043 249.16748,148.98926 249.24561,146.5127 C 249.31396,144.37012 249.26904,144.22461 248.26318,143.32324 C 247.68506,142.80469 246.29932,142.04785 245.18701,141.64258 C 242.76123,140.75781 241.37549,139.33301 241.06787,137.40723 C 240.88818,136.28125 240.59717,135.875 239.37354,135.0332 C 236.84717,133.29395 236.21631,131.69531 237.53467,130.37695 C 238.43115,129.47949 240.48389,129.49219 241.63916,130.40039 C 242.11963,130.77832 242.51318,131.25977 242.51318,131.46777 C 242.51318,131.6748 243.13232,132.47559 243.89014,133.24805 C 244.8335,134.20898 245.33057,135.04785 245.47217,135.91406 C 245.67529,137.16602 245.69678,137.18262 247.70361,137.54102 C 251.35889,138.19434 253.30615,139.91992 252.96436,142.20117 C 252.81201,143.21973 252.96631,143.85059 253.70654,145.22949 C 254.98584,147.60156 256.63623,149.29687 257.67236,149.29687 C 258.24072,149.29687 259.18896,149.9541 260.66553,151.37109 C 263.84131,154.4209 264.021,155.08789 261.93896,156.07617 C 260.63135,156.69727 259.46729,156.73242 258.77393,156.1748 z M 288.20068,155.72363 C 286.95947,154.4834 287.08154,153.4502 288.67822,151.71973 L 290.03271,150.25 L 289.81201,147.86523 C 289.59717,145.52832 289.61279,145.45996 290.57959,144.54199 C 291.22607,143.92383 291.50635,143.38477 291.39795,142.96582 C 291.2749,142.49609 291.89111,141.69238 293.72607,139.9209 C 296.00049,137.72559 296.25537,137.34766 296.60107,135.6416 C 296.92236,134.06348 297.22412,133.5498 298.50928,132.38086 L 300.03467,130.99316 L 299.82764,128.06543 C 299.64014,125.43457 299.68701,125.05176 300.30029,124.27148 C 300.82178,123.60937 301.27881,123.40625 302.24561,123.40625 C 304.05225,123.40625 304.396,123.99121 304.30225,126.9043 C 304.2417,128.82227 304.37061,129.6377 304.90381,130.68066 C 305.94873,132.72852 305.79834,133.31641 303.75537,135.2041 C 302.17139,136.66699 301.9292,137.05273 301.9292,138.12402 C 301.9292,140.37793 301.17334,141.56641 299.16748,142.45215 C 296.37061,143.68848 294.37549,147.06738 294.80615,149.83301 C 294.9917,151.02441 294.88428,151.26172 293.396,152.94824 C 292.51025,153.95215 291.5249,155.18457 291.20654,155.68652 C 290.46631,156.85645 289.34717,156.87012 288.20068,155.72363 z M 265.32666,153.3584 C 264.84229,152.85352 264.2124,151.77441 263.92529,150.96191 C 263.30322,149.19922 262.36865,148.12793 260.7085,147.27734 C 259.1792,146.49316 258.63721,145.72266 257.76318,143.09961 C 257.30029,141.7041 256.56787,140.45703 255.54443,139.31934 C 253.30811,136.83105 252.57178,133.20605 254.18896,132.63477 C 255.3042,132.24219 256.30127,132.89648 257.11865,134.56348 C 258.22607,136.82031 258.67529,137.31152 260.18311,137.91504 C 261.79639,138.56055 263.29248,140.68164 263.79932,143.03809 C 264.11084,144.49609 264.51611,145.15234 266.16162,146.86523 C 268.09619,148.87988 268.1499,148.98828 268.31982,151.10156 C 268.51221,153.48633 268.1665,154.27539 266.93213,154.27539 C 266.53174,154.27539 265.81006,153.86426 265.32666,153.3584 z M 139.44775,150.15918 C 137.07227,149.11328 135.71143,146.44434 136.04395,143.49023 C 136.23486,141.79199 140.54102,132.74512 141.1709,132.71777 C 141.93018,132.68359 145.98682,138.50195 146.78857,140.77734 C 147.43018,142.59473 147.44043,145.97363 146.80811,147.18359 C 145.31104,150.05078 142.12354,151.33984 139.44775,150.15918 z M 142.3252,145.0957 C 142.65918,144.79395 142.93262,144.1543 142.93262,143.67676 C 142.93262,142.50977 141.68018,140.68848 140.86475,140.6709 C 140.50439,140.66406 139.28125,143.19434 139.28125,143.94922 C 139.28125,145.44727 141.15723,146.15332 142.3252,145.0957 z M 276.86865,141.11426 C 275.32764,140.29199 274.66943,139.61816 274.00732,138.17773 C 272.78857,135.52246 273.29932,132.91895 275.95654,128.21973 C 276.68115,126.94141 277.45264,125.33789 277.67529,124.65625 C 277.89697,123.97266 278.23193,123.31934 278.41943,123.20312 C 278.86768,122.92773 283.08936,127.11719 284.37646,129.11719 C 285.50146,130.8623 286.22998,134.51074 285.85303,136.51562 C 285.23975,139.7832 279.69678,142.62012 276.86865,141.11426 z M 279.93896,135.75586 C 280.53076,135.00293 280.45068,134.02539 279.69385,132.7832 C 278.77783,131.2832 277.90283,131.37305 277.23779,133.03809 C 276.51709,134.83594 276.56396,135.55273 277.43896,136.16602 C 278.25732,136.74023 279.30029,136.56738 279.93896,135.75586 z M 145.95801,125.18262 C 145.24414,124.53418 144.76904,123.66211 144.44873,122.40918 C 144.19189,121.40527 143.37256,118.24219 142.62793,115.37891 C 141.88232,112.5166 141.27197,109.5918 141.27197,108.88086 C 141.27197,106.23535 144.11279,105.12305 146.25684,106.92773 C 146.81104,107.39551 147.44922,107.7168 147.67139,107.6416 C 147.89502,107.56738 151.21436,106.75488 155.04932,105.83301 C 158.88232,104.91309 165.15527,103.4043 168.98877,102.47852 C 172.82373,101.55371 177.82764,100.34766 180.10986,99.800781 C 182.3916,99.250976 186.72412,98.195312 189.73535,97.453125 C 196.52979,95.77832 198.62158,95.69043 200.8335,96.986328 C 202.04346,97.697266 202.59326,98.305664 203.20605,99.620117 C 205.31934,104.16016 202.93994,108.37988 197.48291,109.77344 C 196.78174,109.95215 195.38721,110.32129 194.38281,110.59277 C 193.37793,110.86426 190.91357,111.52734 188.90576,112.06445 C 186.89795,112.60352 184.13477,113.35352 182.76465,113.7334 C 181.396,114.1123 178.55713,114.87598 176.4585,115.42871 C 171.94385,116.61621 161.33105,119.47754 158.03516,120.39551 C 156.75732,120.75195 154.74121,121.2998 153.5542,121.6123 C 151.20801,122.22949 150.23535,122.85645 150.23535,123.75293 C 150.23535,124.65625 149.17236,125.70898 148.03711,125.92773 C 147.19971,126.08887 146.79932,125.94531 145.95801,125.18262 z M 188.66357,110.49902 C 193.9375,109.05762 198.68896,107.65234 199.22266,107.37598 C 202.06787,105.89648 203.09717,102.93848 201.71338,100.22461 C 200.09229,97.047852 198.06592,97.109375 182.93115,100.78418 C 172.27344,103.37207 164.896,105.15234 152.22754,108.19141 C 145.82227,109.72852 145.01123,110.00879 144.56738,110.83984 C 144.30566,111.3291 144.41064,111.63574 145.06201,112.28809 L 145.89014,113.11719 L 162.48145,113.11719 L 179.07373,113.11719 L 188.66357,110.49902 z M 271.6499,124.60254 C 271.23389,124.40039 270.60107,123.60645 270.24365,122.83691 C 269.85693,122.00391 269.25146,121.30371 268.74951,121.1084 C 267.9917,120.8125 259.60107,118.5293 234.87939,111.89355 C 225.48193,109.37109 221.77881,108.32812 220.5874,107.86621 C 218.30029,106.98145 216.31299,104.20215 216.29688,101.86914 C 216.27832,98.786133 218.27881,95.90625 220.93799,95.188476 C 223.021,94.625976 224.61279,94.867187 233.88232,97.134766 C 238.35498,98.229492 243.5835,99.500976 245.50146,99.959961 C 253.01318,101.75977 257.55615,102.85547 264.15576,104.46094 C 273.53076,106.74121 273.37256,106.72266 274.354,105.67578 C 275.68799,104.25293 278.00244,104.70508 278.88721,106.55859 C 279.39014,107.61426 279.34131,107.91309 277.41162,115.40332 C 275.33545,123.46191 274.87061,124.49902 273.20068,124.81836 C 272.76318,124.90234 272.06689,124.80469 271.6499,124.60254 z M 275.25146,111.29297 C 275.68506,111.00879 276.03857,110.60352 276.03857,110.3916 C 276.03857,109.86133 274.69092,108.46973 274.17529,108.46973 C 273.94482,108.46973 270.34912,107.64648 266.18506,106.63867 C 255.29346,104.00879 245.18213,101.57324 241.35205,100.6582 C 239.52686,100.22168 234.896,99.100586 231.06104,98.166016 C 221.88037,95.928711 220.04248,96.092773 218.59326,99.28418 C 217.80615,101.01953 217.78662,102.36914 218.53076,103.73633 C 219.74561,105.96582 221.05518,106.5332 231.39307,109.31055 C 233.95068,109.99707 237.19873,110.87207 238.6167,111.25586 C 241.09131,111.92773 241.83447,111.95117 257.82861,111.88086 C 272.22607,111.81738 274.57178,111.73828 275.25146,111.29297 z "
       id="path4363" /></g><g
     id="Ebene_4"><rect
       width="266.01163"
       height="266.01266"
       x="83.134567"
       y="83.133301"
       transform="matrix(-0.7071068,0.7071068,-0.7071068,-0.7071068,521.80847,216.13913)"
       style="fill:none;stroke:#000000;stroke-width:2"
       id="rect4291" /><polygon
       points="404.23975,216.13965 216.14111,404.23926 28.041016,216.13965 404.23975,216.13965 "
       id="polygon4293" /><rect
       width="304.66702"
       height="304.66946"
       x="63.80687"
       y="63.804932"
       transform="matrix(-0.7071051,0.7071084,-0.7071084,-0.7071051,521.80847,216.13841)"
       style="fill:none;stroke:#000000"
       id="rect4295" /></g><g
     id="Ebene_5"><path
       d="M 258.13037,161.77344 L 258.33936,161.77344 L 267.30811,161.77344 C 267.98975,161.77344 268.40869,162.37695 269.03662,163.3623 C 269.55615,164.17871 270.146,165.10449 271.11475,165.63281 C 272.31982,166.29004 278.49756,169.27637 280.07959,169.0498 C 280.50049,168.99023 281.12256,169.03906 281.78076,169.09082 C 282.74561,169.16797 283.84033,169.25391 284.8042,169.04004 C 286.53174,168.65625 288.16357,167.5127 288.8374,166.83789 C 289.30811,166.36816 289.78076,166.21289 290.92529,165.83594 L 291.37842,165.68652 C 293.09033,165.11523 294.04443,163.79883 294.08447,163.74316 C 294.40771,163.31445 295.14893,162.54004 295.71143,162.35254 C 295.75732,162.33789 300.31592,160.83887 303.65381,161.54199 C 306.55615,162.15332 309.81006,164.03711 311.27686,165.50488 C 311.59326,165.82031 311.95264,166.20313 312.3335,166.60742 C 313.86084,168.2334 315.59131,170.07617 317.09326,170.52637 C 318.8042,171.04004 320.32764,171.21289 320.39209,171.2207 L 320.43311,171.22461 L 320.47412,171.22461 L 337.64209,171.22461 L 337.64209,169.72461 L 320.51904,169.72461 C 320.32373,169.70117 318.98779,169.5293 317.52295,169.08984 C 316.40771,168.75488 314.68506,166.91992 313.42529,165.58008 C 313.03662,165.16699 312.66943,164.77637 312.3374,164.44434 C 310.73779,162.84375 307.25732,160.76855 303.9624,160.07422 C 300.22998,159.28809 295.43896,160.8623 295.23682,160.92969 C 294.04834,161.32617 292.99072,162.70215 292.87451,162.85742 C 292.85889,162.87891 292.13916,163.85156 290.90381,164.26367 L 290.45654,164.41113 C 289.23584,164.8125 288.49951,165.05566 287.77686,165.77734 C 287.24756,166.30762 285.88428,167.26367 284.47803,167.5752 C 283.73389,167.74121 282.80127,167.66699 281.89795,167.5957 C 281.15576,167.53711 280.45264,167.48145 279.86865,167.56543 C 279.021,167.65332 274.03272,165.51562 271.8335,164.31641 C 271.20264,163.97266 270.76514,163.28516 270.30127,162.55664 C 269.61963,161.48633 268.84717,160.27344 267.30811,160.27344 L 258.34912,160.27344 C 258.36182,160.27051 258.30127,160.26172 258.22607,160.26172 L 258.17139,160.26172 C 258.11279,160.26758 258.05811,160.27539 258.05811,160.27539 L 258.05811,160.27734 C 254.75147,160.37598 252.0835,163.11133 252.0835,166.40527 C 252.0835,168.25391 252.92627,169.92773 254.24756,171.05762 L 229.07568,171.05762 C 229.09814,171.05664 229.04053,171.04785 228.96826,171.04785 L 228.9126,171.04785 C 228.86279,171.05273 228.80713,171.06152 228.80713,171.06152 L 228.80713,171.06543 C 225.91553,171.16113 223.5835,173.55176 223.5835,176.43262 C 223.5835,177.95117 224.23975,179.32422 225.27393,180.30762 L 219.65967,180.30762 C 219.68213,180.30664 219.62451,180.29785 219.55225,180.29785 L 219.49561,180.29785 C 219.4458,180.30273 219.39014,180.31152 219.39014,180.31152 L 219.39014,180.31543 C 216.49854,180.41113 214.16699,182.80176 214.16699,185.68262 C 214.16699,188.58594 216.53223,190.99707 219.43896,191.05762 C 219.43994,191.05762 219.44287,191.05762 219.44385,191.05762 C 219.42139,191.05859 219.479,191.06738 219.55225,191.06738 L 219.60693,191.06738 C 219.64014,191.06445 219.66748,191.06055 219.68799,191.05762 L 226.19287,191.05762 C 225.15674,192.04102 224.49951,193.41406 224.49951,194.93262 C 224.49951,197.83594 226.86475,200.24707 229.77295,200.30762 C 229.77295,200.30762 229.77588,200.30762 229.77686,200.30762 C 229.75439,200.30859 229.81201,200.31738 229.88428,200.31738 L 229.94092,200.31738 C 229.97217,200.31445 230.00146,200.31055 230.021,200.30762 L 233.19287,200.30762 C 232.15674,201.29102 231.49951,202.66406 231.49951,204.18262 C 231.49951,207.08594 233.86475,209.49707 236.77295,209.55762 C 236.77295,209.55762 236.77588,209.55762 236.77686,209.55762 C 236.75439,209.55859 236.81201,209.56738 236.88428,209.56738 L 236.94092,209.56738 C 236.97217,209.56445 237.00146,209.56055 237.021,209.55762 L 273.22412,209.55762 C 276.45459,209.55762 281.1499,208.71387 286.58545,207.7373 C 288.80615,207.33789 291.10107,206.92578 293.42725,206.54785 C 295.11475,206.27441 296.85107,206.14746 298.52979,206.02441 C 300.95459,205.84766 303.4624,205.66406 305.8335,205.03223 C 307.85889,204.49316 309.52881,203.54883 311.14209,202.63672 C 311.99365,202.15527 312.79443,201.70117 313.62061,201.32324 C 316.81006,199.8584 319.70264,199.22461 320.47412,199.22461 L 337.64209,199.22461 L 337.64209,197.72461 L 320.47412,197.72461 C 319.21826,197.72461 316.00146,198.5791 312.99561,199.95996 C 312.11279,200.36426 311.24365,200.85547 310.40381,201.33105 C 308.87256,202.19727 307.28662,203.09277 305.44873,203.58301 C 303.2124,204.17871 300.88428,204.34863 298.42139,204.52832 C 296.70947,204.65332 294.93994,204.7832 293.18701,205.06738 C 290.84717,205.44727 288.54639,205.86035 286.3208,206.26074 C 280.95459,207.22461 276.3208,208.05762 273.22412,208.05762 L 236.98193,208.05762 L 236.78857,208.05762 C 234.70654,208.01367 232.99951,206.27539 232.99951,204.18262 C 232.99951,202.08984 234.70654,200.35156 236.8042,200.30762 L 236.98193,200.30762 L 260.97412,200.30762 L 260.97412,198.80762 L 236.99268,198.80762 C 237.01514,198.80664 236.95752,198.79785 236.88428,198.79785 L 236.82959,198.79785 C 236.79639,198.80078 236.76904,198.80469 236.74756,198.80762 L 229.98193,198.80762 L 229.78857,198.80762 C 227.70654,198.76367 225.99951,197.02539 225.99951,194.93262 C 225.99951,192.83984 227.70654,191.10156 229.8042,191.05762 L 229.98193,191.05762 L 258.47412,191.05762 L 258.47412,189.55762 L 229.99268,189.55762 C 230.01514,189.55664 229.95752,189.54785 229.88428,189.54785 L 229.82959,189.54785 C 229.79639,189.55078 229.76904,189.55469 229.74756,189.55762 L 219.64795,189.55762 L 219.45459,189.55762 C 217.37354,189.51367 215.66699,187.77539 215.66699,185.68262 C 215.66699,183.58984 217.37354,181.85156 219.47021,181.80762 L 219.64795,181.80762 L 228.85596,181.80762 C 228.85693,181.80762 228.85986,181.80762 228.86084,181.80762 C 228.8374,181.80859 228.896,181.81738 228.96826,181.81738 L 229.02393,181.81738 C 229.05615,181.81445 229.08447,181.81055 229.10498,181.80762 L 250.97412,181.80762 L 259.22412,181.80762 L 259.22412,180.30762 L 250.97412,180.30762 L 229.06494,180.30762 L 228.87158,180.30762 C 226.79053,180.26367 225.0835,178.52539 225.0835,176.43262 C 225.0835,174.33984 226.79053,172.60156 228.88721,172.55762 L 229.06494,172.55762 L 273.07471,172.55762 C 273.46826,172.62988 276.16748,173.1748 278.15283,174.87695 C 278.7417,175.38184 279.67334,176.49609 280.75342,177.78516 C 283.92334,181.57227 288.26416,186.75781 292.11475,186.89063 L 292.1665,185.3916 C 288.98486,185.28223 284.72412,180.19141 281.90381,176.82227 C 280.73584,175.42676 279.81201,174.32422 279.12939,173.73828 C 276.66357,171.62402 273.396,171.08887 273.25732,171.06738 L 273.22412,171.27832 L 273.22412,171.05762 L 258.34033,171.05762 L 258.33936,171.03711 L 258.11475,171.03711 C 255.62256,170.98438 253.5835,168.90625 253.5835,166.40527 C 253.5835,163.90332 255.62256,161.8252 258.13037,161.77344 z "
       id="path4298" /></g><g
     id="Ebene_6"><g
       id="g4372"><g
         id="g4374"><defs
           id="defs4376"><path
             d="M 151.06592,234.45312 C 150.81152,233.83789 150.50195,233.36133 150.13525,233.03125 C 149.76855,232.69922 149.35986,232.5332 148.90674,232.5332 C 147.88037,232.5332 147.09521,233.26953 146.54834,234.74414 C 146.13525,235.83789 145.9292,237.55469 145.9292,239.89648 C 145.9292,242.79688 146.17578,244.78516 146.66797,245.85938 C 147.15967,246.93555 147.85059,247.47266 148.74268,247.47266 C 149.6084,247.47266 150.26074,247.04297 150.70264,246.17773 C 151.14502,245.3125 151.46729,244.05664 151.6665,242.41211 L 155.646,244.54297 C 155.37891,246.52344 154.95898,248.17773 154.38574,249.50586 C 153.81299,250.83398 153.10156,251.83594 152.25244,252.50977 C 151.40283,253.18555 150.32129,253.52344 149.00977,253.52344 C 147.41797,253.52344 146.11719,253.11133 145.10742,252.28711 C 144.09766,251.46289 143.22803,250.01172 142.49463,247.93555 C 141.76172,245.85937 141.39502,243.20312 141.39502,239.96094 C 141.39502,235.64258 142.03955,232.32227 143.32959,230.00391 C 144.61719,227.68359 146.44141,226.52539 148.80127,226.52539 C 150.64551,226.52539 152.0957,227.18555 153.15332,228.51172 C 154.20898,229.83594 154.99365,231.86914 155.50586,234.61328 L 151.50439,236.19531 C 151.36426,235.40234 151.21875,234.82031 151.06592,234.45312 L 151.06592,234.45312 z M 173.63721,247.33594 C 173.06055,249.28711 172.22803,250.80859 171.13916,251.89453 C 170.05029,252.98242 168.69434,253.52344 167.06934,253.52344 C 165.4165,253.52344 164.04932,253.05664 162.96777,252.11523 C 161.88623,251.17969 161.00732,249.69531 160.33496,247.66406 C 159.6626,245.63477 159.32715,243.09375 159.32715,240.04297 C 159.32715,235.7793 159.99219,232.46094 161.32422,230.08594 C 162.65625,227.71094 164.51172,226.52539 166.88867,226.52539 C 169.32617,226.52539 171.20557,227.69141 172.52246,230.02344 C 173.8418,232.35547 174.50146,235.625 174.50146,239.82617 C 174.50146,242.88086 174.21387,245.38281 173.63721,247.33594 L 173.63721,247.33594 z M 169.13623,234.32227 C 168.58154,233.18555 167.82812,232.61523 166.87939,232.61523 C 165.96924,232.61523 165.23779,233.19531 164.68701,234.34766 C 164.13574,235.50391 163.85938,237.41602 163.85938,240.08398 C 163.85938,242.72656 164.13428,244.62695 164.68311,245.78125 C 165.23047,246.9375 165.97656,247.51563 166.91992,247.51563 C 167.88916,247.51563 168.63867,246.94922 169.17139,245.81641 C 169.70215,244.68555 169.96729,242.6543 169.96729,239.72656 C 169.96729,237.25977 169.68896,235.45898 169.13623,234.32227 L 169.13623,234.32227 z M 190.3335,240.5332 C 189.94482,240.94922 189.41406,241.29297 188.73779,241.56641 C 189.27588,241.88672 189.6665,242.20898 189.91162,242.5293 C 190.07715,242.74609 190.31885,243.20508 190.63379,243.90625 C 190.94873,244.60937 191.15869,245.15234 191.26563,245.5332 L 193.46924,253.07031 L 188.35449,253.07031 L 185.94092,245.10742 C 185.63525,244.07617 185.3623,243.40625 185.12305,243.09766 C 184.79688,242.69531 184.42676,242.49219 184.01563,242.49219 L 183.61572,242.49219 L 183.61572,253.07031 L 179.05762,253.07031 L 179.05762,226.97656 L 186.60986,226.97656 C 188.01025,226.97656 189.07861,227.19141 189.81934,227.61719 C 190.56006,228.04492 191.15674,228.83984 191.61035,229.99609 C 192.06348,231.1543 192.29004,232.56445 192.29004,234.22656 C 192.29004,235.67578 192.1167,236.92578 191.76855,237.97656 C 191.42041,239.02734 190.94141,239.88086 190.3335,240.5332 L 190.3335,240.5332 z M 187.28418,232.92188 C 186.98584,232.4707 186.42383,232.24609 185.6001,232.24609 L 183.61572,232.24609 L 183.61572,237.55273 L 185.51904,237.55273 C 185.72559,237.55273 186.12549,237.43555 186.7168,237.19727 C 187.01514,237.0918 187.26025,236.81836 187.44824,236.37891 C 187.6377,235.93945 187.73389,235.43555 187.73389,234.86328 C 187.73389,234.02148 187.58252,233.37305 187.28418,232.92188 L 187.28418,232.92188 z M 208.31006,240.5332 C 207.92285,240.94922 207.39062,241.29297 206.71436,241.56641 C 207.25244,241.88672 207.64307,242.20898 207.88965,242.5293 C 208.05566,242.74609 208.29541,243.20508 208.61035,243.90625 C 208.92529,244.60937 209.13721,245.15234 209.24219,245.5332 L 211.44775,253.07031 L 206.33105,253.07031 L 203.91943,245.10742 C 203.61182,244.07617 203.33887,243.40625 203.09961,243.09766 C 202.77344,242.69531 202.40479,242.49219 201.99219,242.49219 L 201.59229,242.49219 L 201.59229,253.07031 L 197.03613,253.07031 L 197.03613,226.97656 L 204.58643,226.97656 C 205.98682,226.97656 207.05713,227.19141 207.79785,227.61719 C 208.53662,228.04492 209.1333,228.83984 209.58691,229.99609 C 210.04004,231.1543 210.26855,232.56445 210.26855,234.22656 C 210.26855,235.67578 210.09326,236.92578 209.74512,237.97656 C 209.39893,239.02734 208.91992,239.88086 208.31006,240.5332 L 208.31006,240.5332 z M 205.26074,232.92188 C 204.9624,232.4707 204.40039,232.24609 203.57666,232.24609 L 201.59229,232.24609 L 201.59229,237.55273 L 203.49756,237.55273 C 203.70215,237.55273 204.10205,237.43555 204.69336,237.19727 C 204.9917,237.0918 205.23682,236.81836 205.42676,236.37891 C 205.61621,235.93945 205.71045,235.43555 205.71045,234.86328 C 205.71045,234.02148 205.56104,233.37305 205.26074,232.92188 L 205.26074,232.92188 z M 228.3501,247.33594 C 227.77393,249.28711 226.94092,250.80859 225.85205,251.89453 C 224.76318,252.98242 223.40576,253.52344 221.78076,253.52344 C 220.12939,253.52344 218.76221,253.05664 217.68115,252.11523 C 216.59717,251.17969 215.72021,249.69531 215.04785,247.66406 C 214.375,245.63477 214.03809,243.09375 214.03809,240.04297 C 214.03809,235.7793 214.70508,232.46094 216.03711,230.08594 C 217.36963,227.71094 219.22314,226.52539 221.60205,226.52539 C 224.03955,226.52539 225.9165,227.69141 227.23584,230.02344 C 228.55518,232.35547 229.21436,235.625 229.21436,239.82617 C 229.21436,242.88086 228.92529,245.38281 228.3501,247.33594 L 228.3501,247.33594 z M 223.84717,234.32227 C 223.29346,233.18555 222.5415,232.61523 221.59229,232.61523 C 220.68213,232.61523 219.95068,233.19531 219.3999,234.34766 C 218.84912,235.50391 218.57275,237.41602 218.57275,240.08398 C 218.57275,242.72656 218.84717,244.62695 219.39404,245.78125 C 219.94385,246.9375 220.68799,247.51563 221.63135,247.51563 C 222.6001,247.51563 223.35205,246.94922 223.88232,245.81641 C 224.41455,244.68555 224.68018,242.6543 224.68018,239.72656 C 224.68018,237.25977 224.40186,235.45898 223.84717,234.32227 L 223.84717,234.32227 z M 240.73877,232.18555 C 240.37744,231.64844 239.87646,231.38086 239.24072,231.38086 C 238.71631,231.38086 238.31982,231.58008 238.0542,231.97852 C 237.78955,232.37891 237.65674,232.86133 237.65674,233.43164 C 237.65674,233.84961 237.76709,234.22461 237.98779,234.55664 C 238.20166,234.90234 238.7085,235.22266 239.5083,235.51953 C 241.48682,236.2832 242.90576,237.05078 243.76221,237.82813 C 244.61865,238.60547 245.2417,239.57031 245.63037,240.72266 C 246.021,241.87305 246.21631,243.16211 246.21631,244.58594 C 246.21631,246.25977 245.95654,247.80273 245.43506,249.2168 C 244.91553,250.62695 244.18994,251.69922 243.25537,252.42969 C 242.32178,253.1582 241.146,253.52344 239.7251,253.52344 C 237.23096,253.52344 235.50439,252.66992 234.54443,250.96484 C 233.58447,249.25586 233.0415,247.08789 232.91455,244.45703 L 237.21826,243.97461 C 237.31006,245.22461 237.50146,246.17773 237.78955,246.83203 C 238.25732,247.89062 238.92627,248.41992 239.79541,248.41992 C 240.44385,248.41992 240.94385,248.14844 241.29346,247.60937 C 241.64502,247.06836 241.8208,246.43945 241.8208,245.72656 C 241.8208,245.04883 241.65283,244.44141 241.31885,243.90625 C 240.98584,243.37109 240.2124,242.86523 238.99756,242.39062 C 237.01123,241.5918 235.59717,240.53516 234.74951,239.21484 C 233.896,237.89648 233.47021,236.21484 233.47021,234.16992 C 233.47021,232.82812 233.68799,231.56055 234.12451,230.36523 C 234.56104,229.16992 235.21729,228.23242 236.09229,227.54883 C 236.96924,226.86523 238.16846,226.52539 239.6958,226.52539 C 241.56592,226.52539 242.99365,227.14453 243.97607,228.38477 C 244.95947,229.62695 245.54346,231.60352 245.72998,234.30859 L 241.44971,234.75586 C 241.3374,233.57812 241.1001,232.7207 240.73877,232.18555 L 240.73877,232.18555 z M 250.74658,253.07031 L 250.74658,226.97656 L 255.28076,226.97656 L 255.28076,253.07031 L 250.74658,253.07031 L 250.74658,253.07031 z M 269.57275,253.07031 L 264.66064,253.07031 L 259.12256,226.97656 L 263.85596,226.97656 L 267.16064,245.75586 L 270.41846,226.97656 L 275.01318,226.97656 L 269.57275,253.07031 L 269.57275,253.07031 z M 290.88623,247.18555 L 290.88623,253.07031 L 278.53467,253.07031 L 278.53467,226.97656 L 290.65576,226.97656 L 290.65576,232.5332 L 283.06689,232.5332 L 283.06689,236.73242 L 290.12354,236.73242 L 290.12354,242.03906 L 283.06689,242.03906 L 283.06689,247.18555 L 290.88623,247.18555 L 290.88623,247.18555 z "
             id="XMLID_1_" /></defs><use
           style="fill:#ffffff"
           id="use4379"
           x="0"
           y="0"
           width="432.28076"
           height="432.2793"
           xlink:href="#XMLID_1_" /><clipPath
           id="XMLID_3_"><use
             id="use4382"
             x="0"
             y="0"
             width="432.28076"
             height="432.2793"
             xlink:href="#XMLID_1_" /></clipPath></g></g><g
       id="g4384"><path
         d="M 208.71826,358.18945 C 207.38281,357.3457 206.40967,356.40332 205.79883,355.36035 C 204.96387,353.93848 204.54736,352.30078 204.54736,350.44727 C 204.54736,347.4043 205.75439,344.91406 208.16943,342.97852 C 210.05322,341.49023 212.54395,340.74512 215.64307,340.74512 C 219.74561,340.74512 222.77783,341.67188 224.73877,343.52441 C 226.69971,345.37793 227.68115,347.70996 227.68115,350.52148 C 227.68115,352.16016 227.29053,353.69043 226.51123,355.1123 C 225.92725,356.1709 225.0083,357.19727 223.75537,358.18945 C 225.41162,359.13281 226.64697,360.38281 227.46143,361.9375 C 228.2749,363.49316 228.68213,365.21387 228.68213,367.10059 C 228.68213,368.9209 228.32959,370.62207 227.62451,372.20215 C 226.92041,373.78223 226.05518,375.00293 225.02881,375.86328 C 224.00244,376.72461 222.7251,377.35742 221.19678,377.7627 C 219.66846,378.16699 218.03857,378.37012 216.30762,378.37012 C 213.05518,378.37012 210.57031,377.91504 208.85352,377.00488 C 207.13672,376.09473 205.83154,374.75488 204.93848,372.98438 C 204.04492,371.21387 203.59863,369.23633 203.59863,367.05078 C 203.59863,364.91602 204.01611,363.1084 204.85254,361.62695 C 205.68848,360.14648 206.97705,359 208.71826,358.18945 z M 212.08301,366.70703 C 212.08301,368.31641 212.49609,369.63184 213.32471,370.65234 C 214.15283,371.67285 215.09961,372.18262 216.16699,372.18262 C 217.19092,372.18262 218.10986,371.66406 218.92432,370.62695 C 219.73779,369.58984 220.14502,368.27539 220.14502,366.68262 C 220.14502,365.07324 219.73389,363.75488 218.91357,362.72559 C 218.09229,361.69727 217.14209,361.18262 216.06152,361.18262 C 214.99463,361.18262 214.06494,361.68066 213.27197,362.67578 C 212.479,363.67188 212.08301,365.01562 212.08301,366.70703 z M 212.55713,351.03223 C 212.55713,352.2959 212.88916,353.31348 213.55322,354.08594 C 214.21777,354.85938 215.10303,355.24512 216.20801,355.24512 C 217.18701,355.24512 217.9917,354.86328 218.62158,354.09863 C 219.25049,353.33496 219.56592,352.3457 219.56592,351.13281 C 219.56592,349.87012 219.23584,348.84375 218.57959,348.05469 C 217.92139,347.26562 217.08252,346.87012 216.06152,346.87012 C 215.02588,346.87012 214.18311,347.25684 213.53271,348.0293 C 212.88232,348.80273 212.55713,349.80371 212.55713,351.03223 z "
         style="fill:#ffffff"
         id="path4386" /></g></g></svg>